<svg width="63" height="99" viewBox="0 0 63 99" fill="none" xmlns="http://www.w3.org/2000/svg">
<path d="M54.8935 50.157H33.9543V45.9253C45.989 44.9123 55.3895 36.964 55.3895 27.3323C55.3895 26.0519 54.2232 25.0155 52.7857 25.0155C45.1566 25.0155 38.3612 27.8047 33.9533 32.1295V21.5479C45.988 20.5329 55.3885 12.5847 55.3885 2.95502C55.3885 1.67455 54.2222 0.638184 52.7847 0.638184C43.4251 0.639563 35.317 4.83267 31.3496 10.9246C27.3812 4.83249 19.2731 0.639419 9.91445 0.639419C8.47541 0.639419 7.31069 1.67579 7.31069 2.95625C7.31069 12.5863 16.7122 20.5345 28.7458 21.5492V32.1307C24.3388 27.8045 17.5426 25.0167 9.91346 25.0167C8.47442 25.0167 7.3097 26.0531 7.3097 27.3336C7.3097 36.9637 16.7112 44.9119 28.7448 45.9265V50.1589L7.80764 50.1582C3.67951 50.1582 0.321106 53.1467 0.321106 56.8198C0.321106 60.493 3.67971 63.4813 7.80764 63.4813H8.89098L17.5337 96.2541C17.8095 97.3015 18.8596 98.0414 20.0676 98.0414H42.6335C43.8416 98.0414 44.8917 97.3015 45.1674 96.2541L50.7307 75.1564C50.7322 75.1516 50.7338 75.1474 50.7338 75.1426L53.8079 63.4825H54.8912C59.0194 63.4825 62.3778 60.494 62.3778 56.821C62.3785 53.1485 59.0184 50.158 54.892 50.158L54.8935 50.157ZM49.8665 29.8359C48.45 35.6962 42.1715 40.2941 34.2704 41.2194C35.6869 35.3577 41.963 30.7605 49.8665 29.8359ZM49.8665 5.4602C48.45 11.3205 42.1715 15.9183 34.2704 16.8437C35.6869 10.9834 41.963 6.38552 49.8665 5.4602ZM12.8346 5.4602C20.7358 6.38555 27.0128 10.9834 28.4292 16.8437C20.5297 15.9183 14.2511 11.3198 12.8346 5.4602ZM12.8346 29.8359C20.7358 30.7613 27.0128 35.3591 28.4292 41.2194C20.5297 40.294 14.2511 35.6955 12.8346 29.8359ZM40.5724 93.4045H22.1322L14.2412 63.479H20.0894L24.457 83.6112C24.457 83.6139 24.4586 83.616 24.4601 83.6188C24.5136 83.8677 24.6213 84.0973 24.7585 84.3111C24.7778 84.3421 24.7933 84.3731 24.8143 84.4021C24.9514 84.5965 25.1235 84.7682 25.318 84.9178C25.3544 84.9454 25.3893 84.9703 25.4257 84.9965C25.6272 85.1357 25.8496 85.2495 26.0921 85.3329C26.1285 85.3454 26.165 85.3529 26.2029 85.364C26.4579 85.4398 26.7252 85.4888 27.0081 85.4908H27.0112H27.0127H42.6593L40.5724 93.4045ZM30.6741 63.479L32.9067 75.0693C32.9082 75.0783 32.9152 75.0845 32.9168 75.0942C32.9671 75.3396 33.0663 75.5686 33.1965 75.7802C33.219 75.8161 33.2368 75.8513 33.2608 75.8851C33.3964 76.0809 33.5646 76.256 33.7576 76.407C33.794 76.4367 33.8304 76.4608 33.8668 76.4891C34.0699 76.6311 34.2938 76.7504 34.5402 76.8352C34.5751 76.8476 34.61 76.8538 34.6464 76.8649C34.9052 76.9435 35.1772 76.9945 35.4655 76.9959H35.4709H44.8994L43.8804 80.8573H29.1622L25.3938 63.4809L30.6741 63.4802L30.6741 63.479ZM46.1199 72.3601H37.67L35.9605 63.479H48.4639L46.1199 72.3601ZM54.8943 58.8453H22.2784H22.2544H7.80742C6.55049 58.8453 5.52841 57.9358 5.52841 56.8175C5.52841 55.699 6.55053 54.7896 7.80742 54.7896H54.8913C56.1483 54.7896 57.1703 55.6991 57.1703 56.8175C57.1696 57.9359 56.149 58.8453 54.8935 58.8453H54.8943Z" fill="black"/>
</svg>
