<?xml version="1.0" encoding="UTF-8"?>
<svg id="Layer_1" data-name="Layer 1" xmlns="http://www.w3.org/2000/svg" viewBox="0 0 140 140">
  <defs>
    <style>
      .cls-1 {
        fill: #fff;
      }
    </style>
  </defs>
  <path class="cls-1" d="m93.67,71.22h-20.94v-4.23c12.03-1.01,21.44-8.96,21.44-18.59,0-1.28-1.17-2.32-2.6-2.32-7.63,0-14.42,2.79-18.83,7.11v-10.58c12.03-1.01,21.44-8.96,21.44-18.59,0-1.28-1.17-2.32-2.6-2.32-9.36,0-17.47,4.19-21.44,10.29-3.97-6.09-12.08-10.29-21.44-10.29-1.44,0-2.6,1.04-2.6,2.32,0,9.63,9.4,17.58,21.44,18.59v10.58c-4.41-4.33-11.2-7.11-18.83-7.11-1.44,0-2.6,1.04-2.6,2.32,0,9.63,9.4,17.58,21.44,18.59v4.23h-20.94c-4.13,0-7.49,2.99-7.49,6.66s3.36,6.66,7.49,6.66h1.08l8.64,32.77c.28,1.05,1.33,1.79,2.53,1.79h22.57c1.21,0,2.26-.74,2.53-1.79l5.56-21.1s0,0,0-.01l3.07-11.66h1.08c4.13,0,7.49-2.99,7.49-6.66,0-3.67-3.36-6.66-7.49-6.66h0Zm-5.03-20.32c-1.42,5.86-7.69,10.46-15.6,11.38,1.42-5.86,7.69-10.46,15.6-11.38Zm0-24.38c-1.42,5.86-7.69,10.46-15.6,11.38,1.42-5.86,7.69-10.46,15.6-11.38Zm-37.03,0c7.9.93,14.18,5.52,15.59,11.38-7.9-.93-14.18-5.52-15.59-11.38Zm0,24.38c7.9.93,14.18,5.52,15.59,11.38-7.9-.93-14.18-5.52-15.59-11.38Zm27.74,63.57h-18.44l-7.89-29.93h5.85l4.37,20.13s0,0,0,0c.05.25.16.48.3.69.02.03.03.06.06.09.14.19.31.37.5.52.04.03.07.05.11.08.2.14.42.25.67.34.04.01.07.02.11.03.25.08.52.12.81.13h15.65l-2.09,7.91Zm-9.9-29.93l2.23,11.59s0,.02.01.02c.05.25.15.47.28.69.02.04.04.07.06.1.14.2.3.37.5.52.04.03.07.05.11.08.2.14.43.26.67.35.03.01.07.02.11.03.26.08.53.13.82.13h9.43l-1.02,3.86h-14.72l-3.77-17.38h5.28Zm15.45,8.88h-8.45l-1.71-8.88h12.5l-2.34,8.88Zm8.77-13.51h-47.09c-1.26,0-2.28-.91-2.28-2.03s1.02-2.03,2.28-2.03h47.08c1.26,0,2.28.91,2.28,2.03,0,1.12-1.02,2.03-2.28,2.03h0Z"/>
</svg>