<svg width="138" height="123" viewBox="0 0 138 123" fill="none" xmlns="http://www.w3.org/2000/svg">
<path d="M117.983 94.8596H19.7323C18.9976 94.8596 18.3044 94.5628 17.8449 94.052C17.3869 93.5412 17.214 92.8738 17.3761 92.2366C18.6879 87.065 21.8071 84.5766 24.742 83.3923C24.7343 83.2316 24.7312 83.0716 24.7312 82.9123C24.7312 76.3245 30.7538 70.9656 38.1574 70.9656C38.7768 70.9656 39.3909 71.0032 39.998 71.0778C40.8771 66.2857 45.5649 62.6171 51.1956 62.6171C52.6035 62.6171 53.9798 62.8509 55.2754 63.3029C57.9998 58.96 63.164 56.1777 68.8577 56.1777C74.9357 56.1777 80.3888 59.3322 82.9402 64.1749C89.8282 64.5134 95.5504 68.8185 97.1687 74.7122C101.485 75.0705 105.235 77.6416 106.748 81.2315C116.232 83.4724 120.053 91.5338 120.219 91.8933C120.524 92.5566 120.439 93.3109 119.99 93.9058C119.542 94.5027 118.789 94.8597 117.983 94.8597L117.983 94.8596ZM23.0964 90.5599H113.723C111.932 88.4593 108.899 85.8923 104.41 85.1688C103.45 85.015 102.691 84.3626 102.482 83.5147C101.832 80.8807 99.1612 78.9687 96.1319 78.9687C96.0043 78.9687 95.8837 78.9899 95.7623 79.0036C95.7415 79.0064 95.4287 79.0412 95.408 79.044C94.7694 79.1096 94.1215 78.9373 93.6213 78.5762C93.121 78.2138 92.8036 77.6887 92.739 77.1163C92.1934 72.1772 87.6033 68.4526 82.0655 68.4526C82.0009 68.4608 81.5322 68.5114 81.4661 68.5155C80.4056 68.5422 79.3835 67.9726 79.0376 67.0515C77.559 63.1189 73.4677 60.4761 68.8575 60.4761C64.2803 60.4761 60.1981 63.0916 58.6996 66.986C58.4514 67.6302 57.8735 68.1321 57.1442 68.3379C56.4095 68.5424 55.6172 68.4288 54.997 68.0302C53.8658 67.3012 52.5509 66.9163 51.1954 66.9163C47.6026 66.9163 44.6802 69.5167 44.6802 72.7121C44.6802 72.9699 44.7286 73.2161 44.7701 73.4622C44.8976 74.2295 44.5595 75.0466 43.8717 75.5226C43.1862 75.9972 42.2671 76.1538 41.4649 75.8556C40.4113 75.4638 39.2977 75.2648 38.1574 75.2648C33.4181 75.2648 29.5626 78.6955 29.5626 82.9126C29.5626 83.4275 29.6256 83.9273 29.7339 84.4142C29.9837 85.5254 29.2198 86.6202 27.9879 86.9127C25.7778 87.4379 24.1609 88.64 23.0958 90.5601L23.0964 90.5599Z" fill="black"/>
<path d="M73.5859 74.6077C73.4852 74.6077 73.383 74.6022 73.2793 74.5906C71.9552 74.4408 71.0192 73.3659 71.1858 72.1876C72.0212 66.3261 78.0754 64.4156 81.16 64.2255C82.511 64.125 83.6453 65.0344 83.7382 66.2202C83.8312 67.4012 82.8337 68.4262 81.5096 68.5143C80.9893 68.5519 76.5122 68.9943 75.981 72.7285C75.825 73.8137 74.7837 74.6076 73.5856 74.6076L73.5859 74.6077Z" fill="black"/>
<path d="M51.2843 84.3005C50.1784 84.3005 49.1824 83.6228 48.9296 82.6238C47.5878 77.3359 41.8511 75.9689 41.7935 75.956C40.5024 75.6606 39.7217 74.4892 40.0536 73.3391C40.3841 72.1903 41.699 71.4902 42.9946 71.791C43.3466 71.8724 51.6585 73.854 53.642 81.6775C53.9363 82.8351 53.1194 83.9866 51.8176 84.2473C51.6385 84.2835 51.461 84.3005 51.2843 84.3005Z" fill="black"/>
<path d="M79.4584 40.7821C75.8419 40.7821 72.6097 40.1564 70.3872 39.409C69.7548 39.1964 69.2514 38.7581 68.9986 38.2015C65.4881 30.441 65.5758 23.7172 69.2599 18.2174C74.3204 10.6682 84.8631 7.72711 90.2965 7.18007C96.7019 6.53456 98.4347 4.21992 98.4524 4.19594C98.9466 3.50735 99.8572 3.08339 100.771 3.18254C101.683 3.27075 102.484 3.77471 102.801 4.53988C103.055 5.14847 108.866 19.5938 98.7243 32.1983C93.3803 38.8395 85.8246 40.7807 79.4583 40.7807L79.4584 40.7821ZM73.0791 35.6665C76.4781 36.537 87.6773 38.5441 94.7945 29.6969C100.822 22.2065 100.145 13.6856 99.1734 9.19112C97.3567 10.1485 94.6861 11.0654 90.84 11.4532C86.6041 11.8799 77.5097 14.3039 73.4106 20.4218C70.6778 24.4987 70.568 29.6237 73.0786 35.6672L73.0791 35.6665Z" fill="black"/>
<path d="M64.005 60.1623C62.8807 60.1623 61.874 59.46 61.6411 58.4405C58.624 45.2548 69.1299 36.2157 69.5796 35.8376C70.5502 35.0218 72.0772 35.0567 72.9947 35.9203C73.91 36.7799 73.8708 38.1372 72.9079 38.9544C72.5382 39.2696 63.9042 46.7798 66.3758 57.5853C66.6417 58.7484 65.7986 59.8836 64.4899 60.1201C64.327 60.1495 64.1648 60.1638 64.005 60.1638L64.005 60.1623Z" fill="black"/>
<path d="M42.8484 39.9366C39.6031 39.9366 36.0204 39.0757 32.4338 36.7063C22.1505 29.9127 23.6953 11.6212 23.7659 10.8457C23.8574 9.84803 24.7081 9.03914 25.82 8.8935C26.9305 8.72392 28.0094 9.30104 28.4214 10.2331C29.7601 13.2603 34.7713 15.0061 40.572 17.0279C43.1626 17.9305 45.8399 18.8639 48.5167 20.0161C57.2858 23.7934 56.5058 31.6988 54.8682 35.3516C54.7298 35.6593 54.5139 35.9336 54.2373 36.1551C52.0832 37.8749 47.8712 39.9366 42.8482 39.9366L42.8484 39.9366ZM28.5477 16.686C28.8904 22.4299 30.4605 30.0468 35.3157 33.2544C42.4595 37.9741 48.8395 34.4217 50.5686 33.2681C51.1603 31.5661 52.3461 26.441 46.4126 23.8863C43.9043 22.8059 41.3153 21.9033 38.8107 21.0314C35.0328 19.7144 31.374 18.439 28.5475 16.6858L28.5477 16.686Z" fill="black"/>
<path d="M65.5435 47.2486C64.559 47.2486 63.6353 46.7097 63.2757 45.8406C60.4178 38.9157 52.0244 36.6381 51.9398 36.6162C50.6595 36.2804 49.9294 35.0852 50.3068 33.9459C50.6856 32.8081 52.0305 32.1599 53.3077 32.4928C53.7481 32.6077 64.1235 35.4264 67.8114 44.3574C68.271 45.4727 67.6293 46.7077 66.3767 47.1173C66.1023 47.2069 65.8209 47.2486 65.5435 47.2486Z" fill="black"/>
</svg>
