<?xml version="1.0" encoding="UTF-8"?>
<svg id="Layer_1" data-name="Layer 1" xmlns="http://www.w3.org/2000/svg" viewBox="0 0 140 140">
  <path d="m127.43,90.56l-9.2,1.95c1.79-2.27,3.04-4.89,3.89-8.03.26-.96-.41-1.93-1.49-2.16-1.08-.23-2.17.37-2.43,1.33-1.01,3.77-2.63,6.56-5.25,8.93-1.53-2.93-4.02-5.37-7.23-7.01-4.13-2.12-8.93-2.68-13.53-1.58-2.24.53-7.96,2.51-15.33,5.26-.84-14.1-14.79-25.48-32.26-26.45,1.16-4.59,3.7-8.35,8.05-12.01.81-.68.85-1.82.08-2.53-.76-.72-2.04-.75-2.85-.07-3.08,2.59-5.37,5.25-6.99,8.15-.95-2.46-2.4-4.77-4.3-6.83-3.96-4.28-9.55-7.05-15.73-7.79-1.35-.16-2.71-.23-4.06-.19-1.05.03-1.9.77-1.95,1.7-.32,5.49,1.67,10.86,5.62,15.11,2.34,2.53,5.25,4.53,8.51,5.89-13.65,3.75-23.49,14.16-23.49,26.37,0,4.95,1.64,9.81,4.74,14.06,2.62,3.6,6.24,6.68,10.53,9.02-.43,1.05-.51,2.21-.17,3.35.74,2.47,3.16,4.12,6.02,4.12.03,0,.06,0,.1,0,21.87-.27,65.75-4.82,72.73-6.48,8.47-2.02,13.88-9.17,13.15-16.69,3.6.89,6.57,2.58,9.56,5.4.4.37.93.56,1.47.56.5,0,.99-.16,1.38-.49.81-.68.85-1.82.08-2.53-2.34-2.2-4.73-3.84-7.34-5l8.65-1.84c1.08-.23,1.75-1.2,1.49-2.16-.26-.96-1.35-1.56-2.43-1.33h0Zm-78.59-15.79c-1.26-.34-1.91-1.06-2.71-1.95-1.08-1.2-2.56-2.83-5.62-2.88-2.86-.04-3.98,1.28-4.8,2.24-.71.84-1.5,1.76-4.16,2.35.07-.95-.05-1.85-.16-2.67-.25-1.82-.34-2.97.66-4.2,3.18-.88,6.59-1.36,10.14-1.36,3.16,0,6.21.38,9.09,1.09-.17.39-.42.86-.61,1.22-.8,1.53-1.92,3.65-1.82,6.16Zm-27.99-29.64c.49.03.97.07,1.45.13h0c8,.97,14.43,6.02,16.85,12.52-2.9-2.98-6.26-5.59-9.95-7.71-.93-.54-2.18-.3-2.79.53-.6.83-.34,1.94.6,2.48,4.32,2.49,8.15,5.7,11.23,9.42-9.68-1.38-16.97-8.76-17.39-17.37h0Zm-9.35,45.46c0-9.09,6.34-17.03,15.71-21.19-.09,1.06.04,2.05.16,2.91.22,1.6.31,2.54-.41,3.4-.47.57-.53,1.33-.14,1.95.36.57,1.03.91,1.76.91.06,0,.12,0,.19,0,6.51-.54,8.58-2.37,10.14-4.2.66-.77.72-.84,1.52-.83,1.13.02,1.57.46,2.55,1.54,1.41,1.56,3.34,3.7,8.39,3.47.63-.03,1.21-.32,1.57-.78.36-.46.44-1.05.24-1.58-.86-2.26.15-4.18,1.13-6.04.27-.52.55-1.04.76-1.57,10.49,3.86,17.78,12.28,17.78,22.02,0,.05,0,.1,0,.16-15.22,5.8-35.39,14.05-47.3,19.97-.08.04-.16.09-.24.13-8.55-4.47-13.81-12.14-13.81-20.26h0Zm88.87,20.59c-.47.11-1.17.24-2.08.39l-6.66-5.6c-.81-.68-2.08-.65-2.85.07-.76.72-.73,1.86.08,2.54l4.41,3.71c-3.34.44-7.58.94-12.35,1.45l-6.7-5.64c-.81-.68-2.08-.65-2.85.07-.76.72-.73,1.85.08,2.53l4.25,3.57c-4.6.46-9.52.93-14.5,1.35l-6.05-5.1c-.81-.68-2.08-.65-2.85.07-.76.72-.73,1.86.08,2.54l3.48,2.93c-9.99.79-19.8,1.37-27.24,1.47-1.04.01-1.9-.56-2.17-1.46-.27-.9.14-1.78,1.06-2.23,3.65-1.81,8.02-3.82,12.76-5.9l-1.6,4.77c-.32.95.29,1.95,1.36,2.23.19.05.39.08.58.08.87,0,1.67-.5,1.93-1.28l2.65-7.92c5.03-2.14,10.3-4.31,15.46-6.38l-1.65,4.93c-.32.95.29,1.95,1.36,2.23.19.05.39.07.58.07.87,0,1.67-.5,1.93-1.28l2.63-7.87c5.81-2.29,11.29-4.37,15.86-6.05l-1.7,5.08c-.32.95.29,1.95,1.36,2.23.19.05.39.08.58.08.87,0,1.67-.51,1.93-1.28l2.62-7.83c3.42-1.21,5.92-2.03,7.08-2.3,3.56-.85,7.28-.42,10.48,1.22,3.19,1.64,5.48,4.29,6.43,7.46,1.97,6.54-2.41,13.29-9.76,15.05h0Zm-26.58-49.24c3.75,0,7.25-1.27,9.9-3.52,2.07,5.02,4.16,10.85,4.16,17.32,0,2.32,2.96,3.65,8.12,3.65s8.12-1.33,8.12-3.65c0-6.74,2.07-12.48,4.11-17.36,2.65,2.29,6.18,3.57,9.96,3.57,7.93,0,14.37-5.74,14.37-12.79,0-3.34-1.47-6.53-4.07-8.91.39-1.17.58-2.38.58-3.61,0-7.05-6.45-12.79-14.37-12.79-2.23,0-4.38.45-6.34,1.31-2.56-3.81-7.27-6.26-12.36-6.26s-9.81,2.4-12.36,6.26c-1.96-.86-4.11-1.31-6.34-1.31-7.93,0-14.37,5.74-14.37,12.79,0,1.23.2,2.44.58,3.61-2.6,2.38-4.06,5.57-4.06,8.91,0,7.05,6.45,12.79,14.37,12.79Zm22.18,13.86c-2.14,0-3.53-.31-4.1-.54-.07-5.31-1.4-10.14-2.98-14.46,2.24.75,4.63,1.14,7.08,1.14s4.77-.38,6.99-1.11c-1.54,4.21-2.82,8.98-2.89,14.43-.57.23-1.95.54-4.1.54h0Zm-28.86-33.68c.66-.5.89-1.32.56-2.04-.5-1.1-.75-2.26-.75-3.45,0-5.07,4.64-9.2,10.34-9.2,2.17,0,4.26.59,6.02,1.71.51.32,1.15.42,1.75.26.6-.16,1.08-.55,1.3-1.07,1.56-3.56,5.34-5.86,9.64-5.86s8.1,2.35,9.64,5.86c.23.52.71.91,1.31,1.07.6.16,1.24.06,1.75-.26,1.75-1.12,3.83-1.71,6.01-1.71,5.7,0,10.34,4.13,10.34,9.2,0,1.19-.25,2.35-.75,3.45-.33.72-.1,1.54.56,2.04,2.34,1.76,3.68,4.33,3.68,7.03,0,5.07-4.64,9.2-10.34,9.2-3.25,0-6.24-1.32-8.21-3.61-.34-.4-.86-.66-1.43-.7-.06,0-.12,0-.17,0-.51,0-1,.17-1.37.48-3.01,2.48-6.92,3.84-11,3.84s-8-1.36-11-3.84c-.42-.34-.98-.52-1.54-.47-.57.04-1.08.3-1.43.7-1.98,2.3-4.97,3.61-8.21,3.61-5.7,0-10.34-4.13-10.34-9.2,0-2.71,1.33-5.27,3.67-7.03h0Z"/>
</svg>