<?xml version="1.0" encoding="UTF-8"?>
<svg id="Layer_1" data-name="Layer 1" xmlns="http://www.w3.org/2000/svg" viewBox="0 0 140 140">
  <defs>
    <style>
      .cls-1 {
        fill: #fff;
      }
    </style>
  </defs>
  <path class="cls-1" d="m119.12,115.85H20.87c-.73,0-1.43-.3-1.89-.81-.46-.51-.63-1.18-.47-1.82,1.31-5.17,4.43-7.66,7.37-8.84,0-.16-.01-.32-.01-.48,0-6.59,6.02-11.95,13.43-11.95.62,0,1.23.04,1.84.11.88-4.79,5.57-8.46,11.2-8.46,1.41,0,2.78.23,4.08.69,2.72-4.34,7.89-7.13,13.58-7.13,6.08,0,11.53,3.15,14.08,8,6.89.34,12.61,4.64,14.23,10.54,4.32.36,8.07,2.93,9.58,6.52,9.48,2.24,13.31,10.3,13.47,10.66.31.66.22,1.42-.23,2.01-.45.6-1.2.95-2.01.95h0Zm-94.89-4.3h90.63c-1.79-2.1-4.82-4.67-9.31-5.39-.96-.15-1.72-.81-1.93-1.65-.65-2.63-3.32-4.55-6.35-4.55-.13,0-.25.02-.37.03-.02,0-.33.04-.35.04-.64.07-1.29-.11-1.79-.47-.5-.36-.82-.89-.88-1.46-.55-4.94-5.14-8.66-10.67-8.66-.06,0-.53.06-.6.06-1.06.03-2.08-.54-2.43-1.46-1.48-3.93-5.57-6.58-10.18-6.58s-8.66,2.62-10.16,6.51c-.25.64-.83,1.15-1.56,1.35-.73.2-1.53.09-2.15-.31-1.13-.73-2.45-1.11-3.8-1.11-3.59,0-6.52,2.6-6.52,5.8,0,.26.05.5.09.75.13.77-.21,1.58-.9,2.06-.69.47-1.6.63-2.41.33-1.05-.39-2.17-.59-3.31-.59-4.74,0-8.59,3.43-8.59,7.65,0,.51.06,1.01.17,1.5.25,1.11-.51,2.21-1.75,2.5-2.21.53-3.83,1.73-4.89,3.65h0Z"/>
  <path class="cls-1" d="m74.73,95.59c-.1,0-.2,0-.31-.02-1.32-.15-2.26-1.22-2.09-2.4.84-5.86,6.89-7.77,9.97-7.96,1.35-.1,2.49.81,2.58,1.99.09,1.18-.9,2.21-2.23,2.29-.52.04-5,.48-5.53,4.21-.16,1.09-1.2,1.88-2.4,1.88h0Z"/>
  <path class="cls-1" d="m52.43,105.29c-1.11,0-2.1-.68-2.35-1.68-1.34-5.29-7.08-6.65-7.14-6.67-1.29-.3-2.07-1.47-1.74-2.62.33-1.15,1.65-1.85,2.94-1.55.35.08,8.66,2.06,10.65,9.89.29,1.16-.52,2.31-1.82,2.57-.18.04-.36.05-.53.05Z"/>
  <path class="cls-1" d="m80.6,61.77c-3.62,0-6.85-.63-9.07-1.37-.63-.21-1.14-.65-1.39-1.21-3.51-7.76-3.42-14.48.26-19.98,5.06-7.55,15.6-10.49,21.04-11.04,6.41-.65,8.14-2.96,8.16-2.98.49-.69,1.4-1.11,2.32-1.01.91.09,1.71.59,2.03,1.36.25.61,6.06,15.05-4.08,27.66-5.34,6.64-12.9,8.58-19.27,8.58h0Zm-6.38-5.12c3.4.87,14.6,2.88,21.72-5.97,6.03-7.49,5.35-16.01,4.38-20.51-1.82.96-4.49,1.87-8.33,2.26-4.24.43-13.33,2.85-17.43,8.97-2.73,4.08-2.84,9.2-.33,15.25h0Z"/>
  <path class="cls-1" d="m65.15,81.15c-1.12,0-2.13-.7-2.36-1.72-3.02-13.19,7.49-22.22,7.94-22.6.97-.82,2.5-.78,3.42.08.92.86.88,2.22-.09,3.03-.37.32-9,7.83-6.53,18.63.27,1.16-.58,2.3-1.89,2.53-.16.03-.33.04-.48.04h0Z"/>
  <path class="cls-1" d="m43.99,60.92c-3.25,0-6.83-.86-10.41-3.23-10.28-6.79-8.74-25.09-8.67-25.86.09-1,.94-1.81,2.05-1.95,1.11-.17,2.19.41,2.6,1.34,1.34,3.03,6.35,4.77,12.15,6.79,2.59.9,5.27,1.84,7.94,2.99,8.77,3.78,7.99,11.68,6.35,15.34-.14.31-.35.58-.63.8-2.15,1.72-6.37,3.78-11.39,3.78h0Zm-14.3-23.25c.34,5.74,1.91,13.36,6.77,16.57,7.14,4.72,13.52,1.17,15.25.01.59-1.7,1.78-6.83-4.16-9.38-2.51-1.08-5.1-1.98-7.6-2.85-3.78-1.32-7.44-2.59-10.26-4.35h0Z"/>
  <path class="cls-1" d="m66.69,68.23c-.98,0-1.91-.54-2.27-1.41-2.86-6.92-11.25-9.2-11.34-9.22-1.28-.34-2.01-1.53-1.63-2.67.38-1.14,1.72-1.79,3-1.45.44.11,10.82,2.93,14.5,11.86.46,1.12-.18,2.35-1.43,2.76-.27.09-.56.13-.83.13Z"/>
</svg>