<svg width="184" height="164" viewBox="0 0 184 164" fill="none" xmlns="http://www.w3.org/2000/svg">
<path d="M149.428 102.043L140.229 103.995C142.016 101.722 143.272 99.1058 144.116 95.9606C144.374 94.9966 143.706 94.0294 142.623 93.7999C141.542 93.5703 140.453 94.165 140.195 95.1282C139.183 98.8999 137.563 101.688 134.942 104.056C133.411 101.129 130.918 98.6901 127.71 97.0424C123.583 94.9224 118.775 94.3596 114.176 95.4592C111.941 95.9902 106.217 97.9688 98.8453 100.722C98.0053 86.6233 84.0503 75.239 66.5825 74.2749C67.7448 69.6895 70.2852 65.922 74.6314 62.2695C75.4402 61.5898 75.477 60.4543 74.7122 59.7346C73.9474 59.0132 72.6722 58.9822 71.8634 59.6627C68.7786 62.2549 66.4889 64.9081 64.8766 67.814C63.9236 65.3534 62.4804 63.0391 60.5771 60.9863C56.6138 56.7081 51.0252 53.9404 44.8438 53.1919C43.4979 53.0286 42.1309 52.9624 40.7813 52.9983C39.7329 53.0253 38.8809 53.7646 38.8276 54.6975C38.5072 60.1864 40.5004 65.5527 44.4437 69.809C46.7857 72.3382 49.6971 74.334 52.9582 75.7024C39.3061 79.4561 29.467 89.8581 29.467 102.072C29.467 107.02 31.1058 111.88 34.2024 116.127C36.8254 119.722 40.439 122.811 44.7293 125.143C44.2987 126.19 44.216 127.352 44.5594 128.491C45.304 130.962 47.7168 132.606 50.584 132.606C50.6152 132.606 50.6483 132.606 50.6813 132.605C72.5466 132.33 116.427 127.786 123.407 126.127C131.879 124.103 137.288 116.952 136.558 109.436C140.16 110.323 143.13 112.015 146.122 114.834C146.518 115.207 147.053 115.396 147.587 115.396C148.084 115.396 148.581 115.233 148.971 114.906C149.779 114.226 149.816 113.09 149.051 112.371C146.715 110.17 144.322 108.534 141.707 107.37L150.361 105.533C151.445 105.304 152.112 104.336 151.854 103.372C151.597 102.41 150.509 101.815 149.427 102.045L149.428 102.043ZM70.8381 86.2573C69.5794 85.9215 68.9266 85.1994 68.1251 84.3114C67.0445 83.1162 65.5654 81.4774 62.5036 81.4325C59.6466 81.3924 58.5274 82.711 57.7038 83.6773C56.9895 84.5163 56.2009 85.4402 53.5402 86.0284C53.6127 85.0832 53.4897 84.174 53.3768 83.3577C53.1289 81.5401 53.0371 80.3858 54.036 79.1596C57.2117 78.2765 60.6232 77.7946 64.1765 77.7946C67.3393 77.7946 70.3909 78.1752 73.2647 78.8819C73.0921 79.2748 72.8479 79.7397 72.6587 80.1007C71.8554 81.6316 70.7436 83.7517 70.8381 86.2573ZM42.8434 56.6149C43.33 56.6427 43.8157 56.6868 44.2977 56.7456H44.2986C52.2944 57.712 58.7284 62.7638 61.1511 69.2649C58.2518 66.2881 54.8896 63.6779 51.1963 61.5523C50.2617 61.014 49.014 61.2533 48.4091 62.0841C47.8041 62.9158 48.0722 64.026 49.0068 64.5642C53.3283 67.0502 57.153 70.2687 60.2324 73.9833C50.5519 72.6027 43.2642 65.2194 42.8438 56.6147L42.8434 56.6149ZM33.4981 102.07C33.4981 92.9815 39.843 85.0443 49.213 80.8847C49.124 81.9459 49.258 82.9352 49.3746 83.7906C49.5922 85.3877 49.6822 86.3328 48.9688 87.189C48.496 87.7576 48.4427 88.5198 48.832 89.1373C49.191 89.7043 49.8658 90.0515 50.5884 90.0515C50.6499 90.0515 50.7132 90.049 50.7766 90.0441C57.2914 89.5025 59.3581 87.6734 60.9151 85.846C61.5762 85.0716 61.6349 85.0095 62.4346 85.0201C63.5629 85.0373 64.0045 85.4768 64.9833 86.56C66.3925 88.1203 68.3233 90.2614 73.3765 90.0295C74.0072 90.0017 74.5874 89.7109 74.9419 89.2461C75.2971 88.7812 75.3862 88.1955 75.1842 87.6629C74.3258 85.4049 75.3348 83.4794 76.3116 81.6194C76.5834 81.1006 76.857 80.5762 77.0755 80.0493C87.5638 83.9117 94.8536 92.3301 94.8536 102.071C94.8536 102.125 94.8508 102.175 94.8508 102.229C79.6271 108.025 59.4597 116.282 47.5483 122.198C47.4647 122.24 47.3867 122.286 47.3059 122.331C38.7566 117.861 33.4987 110.195 33.4987 102.069L33.4981 102.07ZM122.364 122.659C121.896 122.771 121.193 122.902 120.282 123.05L113.626 117.448C112.817 116.768 111.542 116.8 110.777 117.519C110.013 118.239 110.048 119.374 110.857 120.054L115.27 123.768C111.926 124.205 107.689 124.703 102.921 125.217L96.2238 119.581C95.4158 118.901 94.1397 118.932 93.3749 119.652C92.6102 120.371 92.646 121.506 93.4548 122.187L97.7018 125.761C93.1032 126.226 88.1802 126.689 83.2041 127.113L77.1549 122.017C76.347 121.336 75.0708 121.366 74.306 122.086C73.5413 122.806 73.5752 123.941 74.3841 124.621L77.8628 127.551C67.8711 128.34 58.0595 128.924 50.6249 129.018C49.5856 129.031 48.7263 128.461 48.4564 127.561C48.1846 126.659 48.6005 125.785 49.5149 125.33C53.1617 123.518 57.5364 121.51 62.2765 119.433L60.6808 124.206C60.3632 125.155 60.9719 126.154 62.0378 126.436C62.2296 126.486 62.4234 126.511 62.6134 126.511C63.4828 126.511 64.2843 126.007 64.5451 125.229L67.193 117.309C72.2196 115.165 77.4977 112.996 82.6482 110.934L81.002 115.862C80.6844 116.811 81.2931 117.81 82.359 118.092C82.5509 118.142 82.7446 118.167 82.9346 118.167C83.8041 118.167 84.6056 117.663 84.8663 116.885L87.4984 109.011C93.3063 106.726 98.7863 104.639 103.357 102.959L101.658 108.04C101.341 108.989 101.949 109.988 103.015 110.27C103.207 110.32 103.401 110.345 103.591 110.345C104.46 110.345 105.262 109.84 105.523 109.063L108.141 101.229C111.559 100.019 114.064 99.1993 115.221 98.9247C118.784 98.0743 122.505 98.5089 125.698 100.149C128.891 101.79 131.175 104.439 132.129 107.61C134.097 114.152 129.718 120.903 122.364 122.66L122.364 122.659ZM95.7886 73.4193C99.5346 73.4193 103.037 72.1539 105.69 69.8975C107.756 74.915 109.848 80.7511 109.848 87.2147C109.848 89.5365 112.809 90.8689 117.971 90.8689C123.132 90.8689 126.094 89.5365 126.094 87.2147C126.094 80.4767 128.165 74.737 130.199 69.8511C132.853 72.1386 136.38 73.4193 140.159 73.4193C148.085 73.4193 154.533 67.682 154.533 60.6296C154.533 57.286 153.065 54.1007 150.461 51.717C150.849 50.548 151.044 49.339 151.044 48.107C151.044 41.0544 144.596 35.3173 136.67 35.3173C134.442 35.3173 132.288 35.765 130.329 36.6236C127.768 32.8102 123.056 30.3625 117.973 30.3625C112.801 30.3625 108.165 32.7634 105.608 36.6219C103.648 35.7633 101.494 35.3164 99.2684 35.3164C91.3424 35.3164 84.8948 41.0538 84.8948 48.1061C84.8948 49.338 85.0913 50.5471 85.4778 51.7162C82.8795 54.0976 81.4143 57.2826 81.4143 60.6288C81.4152 67.6813 87.8629 73.4193 95.7886 73.4193ZM117.971 87.2808C115.829 87.2808 114.444 86.9663 113.875 86.7392C113.8 81.4291 112.478 76.6028 110.892 72.2821C113.134 73.0271 115.526 73.4201 117.974 73.4201C120.384 73.4201 122.743 73.0386 124.959 72.3115C123.417 76.5228 122.136 81.2904 122.066 86.7399C121.497 86.9662 120.112 87.2807 117.971 87.2807L117.971 87.2808ZM89.1158 53.5959C89.7796 53.0959 90.0073 52.2725 89.6805 51.5552C89.181 50.4572 88.9276 49.2972 88.9276 48.1079C88.9276 43.0339 93.5667 38.9044 99.269 38.9044C101.443 38.9044 103.524 39.4974 105.288 40.6175C105.794 40.9393 106.439 41.0349 107.035 40.8772C107.632 40.7196 108.113 40.3258 108.338 39.8095C109.897 36.2495 113.679 33.949 117.975 33.949C122.203 33.949 126.076 36.3034 127.612 39.808C127.838 40.3244 128.32 40.7181 128.918 40.8766C129.515 41.0343 130.16 40.9379 130.666 40.6144C132.42 39.4943 134.498 38.9029 136.674 38.9029C142.377 38.9029 147.017 43.0308 147.017 48.1064C147.017 49.2958 146.764 50.4558 146.264 51.5537C145.938 52.271 146.165 53.0944 146.829 53.5944C149.165 55.3573 150.506 57.9216 150.506 60.6273C150.506 65.7013 145.867 69.8308 140.163 69.8308C136.912 69.8308 133.921 68.5147 131.951 66.2185C131.607 65.8173 131.087 65.5633 130.523 65.5192C130.465 65.5143 130.406 65.5134 130.348 65.5134C129.842 65.5134 129.353 65.6834 128.98 65.9905C125.971 68.4666 122.063 69.8325 117.977 69.8325C113.883 69.8325 109.976 68.4682 106.975 65.9922C106.559 65.6483 105.999 65.4759 105.434 65.52C104.867 65.5625 104.35 65.8166 104.004 66.2168C102.028 68.5139 99.0347 69.8317 95.7913 69.8317C90.088 69.8317 85.4498 65.7038 85.4498 60.6282C85.4471 57.9201 86.7838 55.3558 89.1159 53.5961L89.1158 53.5959Z" fill="black"/>
</svg>
