<?xml version="1.0" encoding="UTF-8"?>
<svg id="Layer_1" data-name="Layer 1" xmlns="http://www.w3.org/2000/svg" viewBox="0 0 140 140">
  <path d="m94.66,62.68c-1.3,0-2.35-.94-2.35-2.09v-14.63c0-1.15,1.05-2.09,2.35-2.09s2.35.94,2.35,2.09v14.63c0,1.15-1.05,2.09-2.35,2.09Z"/>
  <path d="m94.66,121.21c-5.18,0-9.4-3.75-9.4-8.36v-52.25c0-1.15,1.05-2.09,2.35-2.09h14.09c1.3,0,2.35.94,2.35,2.09v29.86c0,1.15-1.05,2.09-2.35,2.09s-2.35-.94-2.35-2.09v-27.77h-9.4v50.16c0,2.3,2.11,4.18,4.7,4.18s4.7-1.88,4.7-4.18v-1.28c0-1.15,1.05-2.09,2.35-2.09s2.35.94,2.35,2.09v1.28c0,4.61-4.21,8.36-9.4,8.36h0Zm7.05-18c-1.3,0-2.35-.94-2.35-2.09v-.21c0-1.15,1.05-2.09,2.35-2.09s2.35.94,2.35,2.09v.21c0,1.15-1.05,2.09-2.35,2.09Z"/>
  <path d="m108.76,48.05h-28.19c-1.3,0-2.35-.94-2.35-2.09v-12.54c0-.55.25-1.09.69-1.48l14.09-12.54c.92-.82,2.4-.82,3.32,0l14.09,12.54c.44.39.69.92.69,1.48v12.54c0,1.15-1.05,2.09-2.35,2.09Zm-25.84-4.18h23.49v-9.58l-11.74-10.45-11.74,10.45v9.58Z"/>
  <path d="m45.34,62.68c-1.3,0-2.35-.94-2.35-2.09v-14.63c0-1.15,1.05-2.09,2.35-2.09s2.35.94,2.35,2.09v14.63c0,1.15-1.05,2.09-2.35,2.09Z"/>
  <path d="m45.34,121.21c-5.18,0-9.4-3.75-9.4-8.36v-52.25c0-1.15,1.05-2.09,2.35-2.09h14.09c1.3,0,2.35.94,2.35,2.09v29.86c0,1.15-1.05,2.09-2.35,2.09s-2.35-.94-2.35-2.09v-27.77h-9.4v50.16c0,2.3,2.11,4.18,4.7,4.18s4.7-1.88,4.7-4.18v-1.28c0-1.15,1.05-2.09,2.35-2.09s2.35.94,2.35,2.09v1.28c0,4.61-4.21,8.36-9.4,8.36Zm7.05-18c-1.3,0-2.35-.94-2.35-2.09v-.21c0-1.15,1.05-2.09,2.35-2.09s2.35.94,2.35,2.09v.21c0,1.15-1.05,2.09-2.35,2.09Z"/>
  <path d="m59.43,48.05h-28.19c-1.3,0-2.35-.94-2.35-2.09v-22.99c0-1.15,1.05-2.09,2.35-2.09s2.35.94,2.35,2.09v20.9h23.49v-20.9c0-1.15,1.05-2.09,2.35-2.09s2.35.94,2.35,2.09v22.99c0,1.15-1.05,2.09-2.35,2.09h0Z"/>
  <path d="m50.03,48.05h-9.4c-1.3,0-2.35-.94-2.35-2.09v-16.72c0-1.15,1.05-2.09,2.35-2.09s2.35.94,2.35,2.09v14.63h4.7v-14.63c0-1.15,1.05-2.09,2.35-2.09s2.35.94,2.35,2.09v16.72c0,1.15-1.05,2.09-2.35,2.09h0Z"/>
  <path d="m108.76,71.04h-28.19c-1.3,0-2.35-.94-2.35-2.09s1.05-2.09,2.35-2.09h28.19c1.3,0,2.35.94,2.35,2.09s-1.05,2.09-2.35,2.09Z"/>
  <path d="m59.43,71.04h-28.19c-1.3,0-2.35-.94-2.35-2.09s1.05-2.09,2.35-2.09h28.19c1.3,0,2.35.94,2.35,2.09s-1.05,2.09-2.35,2.09Z"/>
</svg>