<svg width="151" height="134" viewBox="0 0 151 134" fill="none" xmlns="http://www.w3.org/2000/svg">
<path d="M99.8263 46.1899C98.5294 46.1899 97.4773 45.2539 97.4773 44.0998V29.4696C97.4773 28.3156 98.5292 27.3795 99.8263 27.3795C101.123 27.3795 102.175 28.3155 102.175 29.4696V44.0998C102.175 45.2538 101.123 46.1899 99.8263 46.1899Z" fill="black"/>
<path d="M99.8263 104.711C94.6453 104.711 90.4308 100.961 90.4308 96.3507V44.0994C90.4308 42.9454 91.4827 42.0093 92.7798 42.0093H106.873C108.17 42.0093 109.222 42.9453 109.222 44.0994V73.957C109.222 75.111 108.17 76.0472 106.873 76.0472C105.576 76.0472 104.524 75.1111 104.524 73.957V46.1899H95.1285V96.3507C95.1285 98.6556 97.2358 100.531 99.8263 100.531C102.417 100.531 104.524 98.6557 104.524 96.3507V95.0668C104.524 93.9128 105.576 92.9767 106.873 92.9767C108.17 92.9767 109.222 93.9127 109.222 95.0668V96.3507C109.222 100.961 105.007 104.711 99.8265 104.711H99.8263ZM106.873 86.7067C105.576 86.7067 104.524 85.7706 104.524 84.6165V84.4075C104.524 83.2535 105.576 82.3174 106.873 82.3174C108.17 82.3174 109.222 83.2534 109.222 84.4075V84.6165C109.222 85.7713 108.17 86.7067 106.873 86.7067Z" fill="black"/>
<path d="M113.921 31.5602H85.7341C84.4372 31.5602 83.3851 30.6242 83.3851 29.4701V16.9299C83.3851 16.3753 83.6326 15.8438 84.073 15.4519L98.1662 2.91169C99.084 2.09584 100.57 2.09584 101.488 2.91169L115.582 15.4519C116.022 15.8438 116.269 16.3752 116.269 16.9299V29.4701C116.269 30.6241 115.218 31.5602 113.921 31.5602ZM88.0835 27.3801H111.573V17.7959L99.8288 7.34561L88.0844 17.7959L88.0835 27.3801Z" fill="black"/>
<path d="M50.5016 46.1899C49.2046 46.1899 48.1526 45.2539 48.1526 44.0998V29.4696C48.1526 28.3156 49.2045 27.3795 50.5016 27.3795C51.7986 27.3795 52.8505 28.3155 52.8505 29.4696V44.0998C52.8505 45.2538 51.7986 46.1899 50.5016 46.1899Z" fill="black"/>
<path d="M50.5016 104.711C45.3206 104.711 41.1061 100.961 41.1061 96.3507V44.0994C41.1061 42.9454 42.158 42.0093 43.4551 42.0093H57.5483C58.8452 42.0093 59.8973 42.9453 59.8973 44.0994V73.957C59.8973 75.111 58.8453 76.0472 57.5483 76.0472C56.2513 76.0472 55.1993 75.1111 55.1993 73.957V46.1899H45.8038V96.3507C45.8038 98.6556 47.9111 100.531 50.5016 100.531C53.092 100.531 55.1993 98.6557 55.1993 96.3507V95.0668C55.1993 93.9128 56.2513 92.9767 57.5483 92.9767C58.8453 92.9767 59.8973 93.9127 59.8973 95.0668V96.3507C59.8973 100.961 55.6825 104.711 50.5016 104.711ZM57.5481 86.7067C56.2512 86.7067 55.1991 85.7706 55.1991 84.6165V84.4075C55.1991 83.2535 56.251 82.3174 57.5481 82.3174C58.8451 82.3174 59.8971 83.2534 59.8971 84.4075V84.6165C59.8971 85.7713 58.8451 86.7067 57.5481 86.7067Z" fill="black"/>
<path d="M64.5937 31.5602H36.4073C35.1103 31.5602 34.0583 30.6241 34.0583 29.47V6.48014C34.0583 5.32614 35.1102 4.39001 36.4073 4.39001C37.7043 4.39001 38.7562 5.32604 38.7562 6.48014V27.3814H62.246V6.48014C62.246 5.32614 63.298 4.39001 64.595 4.39001C65.8921 4.39001 66.944 5.32604 66.944 6.48014V29.47C66.944 30.624 65.8921 31.5602 64.595 31.5602H64.5937Z" fill="black"/>
<path d="M55.1983 31.5602H45.8028C44.5059 31.5602 43.4538 30.6242 43.4538 29.4701V12.7498C43.4538 11.5958 44.5057 10.6597 45.8028 10.6597C47.0998 10.6597 48.1518 11.5957 48.1518 12.7498V27.3799H52.8495V12.7498C52.8495 11.5958 53.9015 10.6597 55.1985 10.6597C56.4955 10.6597 57.5475 11.5957 57.5475 12.7498V29.4701C57.5475 30.6241 56.4955 31.5602 55.1985 31.5602H55.1983Z" fill="black"/>
<path d="M113.921 54.5501H85.7341C84.4372 54.5501 83.3851 53.6141 83.3851 52.46C83.3851 51.3059 84.4371 50.3699 85.7341 50.3699H113.921C115.217 50.3699 116.27 51.3059 116.27 52.46C116.27 53.6141 115.218 54.5501 113.921 54.5501Z" fill="black"/>
<path d="M64.5937 54.5501H36.4073C35.1103 54.5501 34.0583 53.6141 34.0583 52.46C34.0583 51.3059 35.1102 50.3699 36.4073 50.3699H64.5937C65.8907 50.3699 66.9427 51.3059 66.9427 52.46C66.9427 53.6141 65.8908 54.5501 64.5937 54.5501Z" fill="black"/>
</svg>
