<?xml version="1.0" encoding="utf-8"?>
<!-- Generator: Adobe Illustrator 27.4.1, SVG Export Plug-In . SVG Version: 6.00 Build 0)  -->
<svg version="1.1" id="Layer_1" xmlns="http://www.w3.org/2000/svg" xmlns:xlink="http://www.w3.org/1999/xlink" x="0px" y="0px"
	 viewBox="0 0 49 39.8" style="enable-background:new 0 0 49 39.8;" xml:space="preserve">
<style type="text/css">
	.st0{fill:none;stroke:#3D481B;stroke-width:2.6721;stroke-linecap:round;stroke-linejoin:round;}
</style>
<path class="st0" d="M24.2,36.3c0.9,0,1.5-0.7,1.5-1.6s-0.7-1.6-1.5-1.6c-0.9,0-1.5,0.7-1.5,1.6S23.4,36.3,24.2,36.3z"/>
<path class="st0" d="M41.3,36.3c0.9,0,1.5-0.7,1.5-1.6s-0.7-1.6-1.5-1.6c-0.9,0-1.5,0.7-1.5,1.6S40.4,36.3,41.3,36.3z"/>
<path class="st0" d="M11.8,1.8H18l4.2,22c0.1,0.8,0.5,1.4,1.1,1.9c0.6,0.5,1.3,0.7,2,0.7h15.1c0.7,0,1.4-0.2,2-0.7
	c0.6-0.5,1-1.2,1.1-1.9L45.9,10H19.6"/>
</svg>
