<svg width="35" height="45" viewBox="0 0 35 45" fill="none" xmlns="http://www.w3.org/2000/svg">
<path d="M12.9426 36.3473C13.6917 36.3473 14.2989 35.6102 14.2989 34.701C14.2989 33.7918 13.6917 33.0547 12.9426 33.0547C12.1936 33.0547 11.5864 33.7918 11.5864 34.701C11.5864 35.6102 12.1936 36.3473 12.9426 36.3473Z" stroke="#3D481B" stroke-width="2.5" stroke-linecap="round" stroke-linejoin="round"/>
<path d="M27.8614 36.3473C28.6105 36.3473 29.2177 35.6102 29.2177 34.701C29.2177 33.7918 28.6105 33.0547 27.8614 33.0547C27.1124 33.0547 26.5052 33.7918 26.5052 34.701C26.5052 35.6102 27.1124 36.3473 27.8614 36.3473Z" stroke="#3D481B" stroke-width="2.5" stroke-linecap="round" stroke-linejoin="round"/>
<path d="M2.09265 1.77515H7.51765L11.1524 23.8191C11.2764 24.5771 11.6161 25.258 12.112 25.7425C12.6079 26.2271 13.2284 26.4845 13.8649 26.4697H27.0476C27.6841 26.4845 28.3046 26.2271 28.8005 25.7425C29.2964 25.258 29.6361 24.5771 29.7601 23.8191L31.9301 10.0067H8.8739" stroke="#3D481B" stroke-width="2.5" stroke-linecap="round" stroke-linejoin="round"/>
</svg>
