<svg width="35" height="46" viewBox="0 0 35 46" fill="none" xmlns="http://www.w3.org/2000/svg">
<path d="M12.9426 36.5231C13.6917 36.5231 14.2989 35.7823 14.2989 34.8686C14.2989 33.9548 13.6917 33.2141 12.9426 33.2141C12.1936 33.2141 11.5864 33.9548 11.5864 34.8686C11.5864 35.7823 12.1936 36.5231 12.9426 36.5231Z" stroke="black" stroke-width="2.5" stroke-linecap="round" stroke-linejoin="round"/>
<path d="M27.8614 36.5231C28.6105 36.5231 29.2177 35.7823 29.2177 34.8686C29.2177 33.9548 28.6105 33.2141 27.8614 33.2141C27.1124 33.2141 26.5052 33.9548 26.5052 34.8686C26.5052 35.7823 27.1124 36.5231 27.8614 36.5231Z" stroke="black" stroke-width="2.5" stroke-linecap="round" stroke-linejoin="round"/>
<path d="M2.09265 1.77881H7.51765L11.1524 23.9323C11.2764 24.6941 11.6161 25.3783 12.112 25.8653C12.6079 26.3522 13.2284 26.6109 13.8649 26.5961H27.0476C27.6841 26.6109 28.3046 26.3522 28.8005 25.8653C29.2964 25.3783 29.6361 24.6941 29.7601 23.9323L31.9301 10.0512H8.8739" stroke="black" stroke-width="2.5" stroke-linecap="round" stroke-linejoin="round"/>
</svg>
