<svg width="288" height="93" viewBox="0 0 288 93" fill="none" xmlns="http://www.w3.org/2000/svg">
<g clip-path="url(#clip0_5_23085)">
<rect width="1395" height="5372" transform="translate(-36 -74)" fill="white"/>
<path d="M641.01 666.842C250.361 220.861 1018.24 -187.683 1248.06 -417.506C1477.88 -647.33 1850.5 -647.33 2080.33 -417.507C2310.15 -187.683 2310.15 184.935 2080.33 414.758C1850.5 644.582 1071.28 1032.77 641.01 666.842Z" fill="#DFEABF"/>
<path d="M86.1026 50.0393C84.1262 50.0001 82.1894 49.9608 80.2921 49.9216C78.3948 49.8823 76.458 49.843 74.4421 49.8038C74.363 50.7853 74.284 51.7276 74.2049 52.6698C74.1259 53.6121 74.0468 54.5151 73.9283 55.4574C73.8887 55.85 73.7701 56.2426 73.612 56.5567C73.4144 56.8708 73.2168 57.1848 72.9401 57.4204C72.6634 57.656 72.3472 57.8523 72.031 57.9701C71.6752 58.0878 71.3195 58.1271 70.9637 58.0878C70.1337 58.0093 69.5012 57.656 69.0269 57.0671C68.5526 56.4781 68.3945 55.7714 68.4735 54.9077C68.7502 51.9239 68.9874 49.0186 69.1059 46.1918C69.2245 43.365 69.2245 40.5382 69.0664 37.7114C69.0269 36.8869 69.2245 36.2195 69.6593 35.6698C70.1337 35.1202 70.7266 34.8061 71.4776 34.7276C72.3076 34.649 73.0191 34.8453 73.612 35.3165C74.2049 35.7876 74.5212 36.455 74.5607 37.3188C74.6002 38.3396 74.6397 39.3604 74.6397 40.3419C74.6397 41.3234 74.6793 42.3442 74.6793 43.365V44.2287C76.5766 44.425 78.4343 44.5035 80.2921 44.5035C82.1499 44.5035 84.0472 44.5035 85.984 44.5035V41.7945C85.984 41.0093 85.984 40.2241 85.984 39.4389C85.984 38.6537 85.984 37.8684 85.984 37.0832C85.984 36.2587 86.2607 35.5913 86.7746 35.0417C87.2884 34.5313 87.9604 34.2564 88.7904 34.2957C89.581 34.2957 90.253 34.6098 90.7273 35.1594C91.2411 35.7091 91.4783 36.3765 91.5178 37.201C91.5178 38.5359 91.5573 39.9493 91.5969 41.4412C91.6364 42.9331 91.6364 44.425 91.6759 45.9562C91.7155 47.4874 91.7155 48.9793 91.755 50.4712C91.7945 51.9631 91.7945 53.3765 91.834 54.7114C91.834 54.947 91.834 55.2218 91.7945 55.4966C91.7945 55.7714 91.7154 56.007 91.6364 56.2426C91.5573 56.5174 91.3992 56.7922 91.2016 57.0278C91.004 57.2634 90.7668 57.4204 90.5296 57.5774C90.2925 57.7345 90.0158 57.813 89.6996 57.8915C89.4229 57.9701 89.1067 57.9701 88.83 57.9308C88.158 57.8523 87.6046 57.5774 87.1698 57.1063C86.735 56.6744 86.4583 56.0855 86.3793 55.4181C86.3398 55.1433 86.3002 54.7899 86.3002 54.358C86.3002 53.9262 86.3002 53.4943 86.2607 53.0232C86.2607 52.552 86.2607 52.1202 86.2212 51.7276C86.2212 51.2957 86.1817 50.9816 86.1817 50.7068C86.1817 50.6283 86.1817 50.5105 86.1817 50.432C86.1421 50.2749 86.1421 50.1571 86.1026 50.0393Z" fill="#3F7229"/>
<path d="M118.08 51.6881C115.748 51.7274 113.455 51.7666 111.242 51.8059C109.028 51.8451 106.775 51.8844 104.562 51.9237C104.364 52.4341 104.206 52.9837 104.127 53.4941C104.048 54.0045 104.008 54.5542 103.969 55.1038C103.969 55.2609 103.929 55.4572 103.929 55.6535C103.929 55.8498 103.89 56.0068 103.85 56.2031C103.692 56.9098 103.297 57.4595 102.744 57.8128C102.19 58.1662 101.558 58.3625 100.846 58.2447C100.135 58.1662 99.5813 57.8521 99.107 57.3417C98.6722 56.8313 98.4351 56.2424 98.4351 55.5357C98.4351 54.4756 98.5141 53.4156 98.7117 52.3948C98.9094 51.374 99.1465 50.3532 99.4232 49.3324C99.7395 48.1546 100.095 46.9375 100.53 45.6812C100.965 44.4248 101.439 43.2077 101.992 42.0299C102.546 40.8521 103.178 39.7528 103.89 38.6927C104.601 37.6719 105.392 36.7689 106.301 36.023C106.854 35.5911 107.447 35.1985 108.04 34.9237C108.673 34.6096 109.305 34.4133 109.977 34.3348C110.649 34.2562 111.321 34.2562 112.032 34.374C112.744 34.4918 113.416 34.7666 114.088 35.1592C115.471 35.9837 116.736 37.0045 117.803 38.3001C118.871 39.5957 119.78 40.9699 120.531 42.501C121.282 43.993 121.914 45.5634 122.428 47.1731C122.942 48.7828 123.298 50.2747 123.574 51.6881C123.653 52.2378 123.732 52.8267 123.732 53.3763C123.732 53.9652 123.732 54.5149 123.732 55.0646C123.693 55.889 123.416 56.5172 122.823 57.0276C122.27 57.538 121.598 57.7343 120.768 57.695C120.017 57.6558 119.384 57.3809 118.91 56.8313C118.436 56.2816 118.199 55.6142 118.199 54.829C118.199 54.3186 118.159 53.8475 118.159 53.3371C118.159 52.8267 118.12 52.277 118.08 51.6881ZM116.222 46.2701C115.867 45.3671 115.471 44.5819 115.036 43.8359C114.602 43.1292 114.088 42.4225 113.574 41.8336C112.942 41.1269 112.349 40.6558 111.795 40.4202C111.242 40.1846 110.728 40.1454 110.254 40.3024C109.779 40.4595 109.345 40.7343 108.949 41.1662C108.554 41.598 108.198 42.1084 107.843 42.6581C107.526 43.247 107.21 43.8752 106.933 44.5426C106.657 45.21 106.38 45.8382 106.143 46.4271C107.882 46.3879 109.582 46.3486 111.202 46.3486C112.823 46.3486 114.523 46.3094 116.222 46.2701Z" fill="#3F7229"/>
<path d="M136.579 51.9629C136.579 52.0807 136.579 52.277 136.579 52.5126C136.579 52.7482 136.579 53.023 136.539 53.2585C136.539 53.5334 136.539 53.7689 136.5 54.0045C136.5 54.2401 136.5 54.3971 136.5 54.4756C136.5 55.4572 136.223 56.2424 135.709 56.8706C135.195 57.4987 134.563 57.8521 133.812 57.8913C133.417 57.8913 133.061 57.8128 132.745 57.6558C132.428 57.4987 132.112 57.2632 131.835 56.9883C131.559 56.7135 131.361 56.3602 131.203 55.9283C131.045 55.5357 130.966 55.1038 130.966 54.6327C130.926 53.7297 130.926 52.8267 130.926 51.9237C130.926 51.0207 130.966 50.1177 131.005 49.1754C131.084 47.8798 131.164 46.5449 131.243 45.2493C131.322 43.9537 131.44 42.6188 131.519 41.3232C131.717 38.4572 132.942 36.5726 135.274 35.6304C136.776 35.0415 138.278 34.6096 139.78 34.374C141.282 34.1385 142.864 34.0207 144.405 34.0599C145.354 34.0599 146.263 34.1385 147.212 34.2562C148.121 34.374 149.069 34.5703 150.018 34.8844C150.848 35.1592 151.599 35.5126 152.271 35.9837C152.943 36.4548 153.575 37.0438 154.05 37.7505C154.524 38.4179 154.88 39.1639 155.117 39.9883C155.354 40.8128 155.433 41.7158 155.275 42.6973C155.156 43.4433 154.919 44.1107 154.484 44.7389C154.089 45.3671 153.575 45.956 153.022 46.4664C152.429 46.9768 151.797 47.4479 151.085 47.8405C150.374 48.2331 149.662 48.6257 148.911 48.9398C148.2 49.2539 147.488 49.5288 146.816 49.7643C146.144 49.9999 145.551 50.1569 144.998 50.314C145.393 50.4318 145.907 50.5888 146.5 50.7458C147.132 50.9029 147.765 51.0599 148.397 51.2562C149.03 51.4133 149.662 51.5703 150.255 51.7274C150.848 51.8844 151.322 52.0022 151.639 52.12C151.718 52.1592 151.836 52.1985 151.915 52.1985C151.994 52.1985 152.113 52.2378 152.192 52.277C152.785 52.4733 153.22 52.7874 153.457 53.2193C153.733 53.6512 153.892 54.083 153.892 54.5542C153.931 55.0253 153.852 55.5357 153.654 56.0068C153.457 56.4779 153.18 56.8706 152.824 57.2239C152.469 57.5773 151.994 57.8128 151.48 57.9306C150.967 58.0484 150.413 58.0484 149.82 57.8521C148.516 57.4202 147.251 56.9491 146.144 56.4779C144.998 55.9675 143.931 55.4964 142.864 54.986C141.796 54.4756 140.769 53.9652 139.741 53.4548C138.792 52.8659 137.725 52.3948 136.579 51.9629ZM137.014 42.344C136.934 43.1292 136.855 43.9144 136.816 44.6997C136.776 45.4849 136.697 46.3094 136.658 47.1731C137.923 47.016 139.148 46.7805 140.413 46.5057C141.678 46.2308 142.903 45.8382 144.168 45.2493C145.433 44.6604 146.381 44.15 147.053 43.6789C147.725 43.2077 148.2 42.7759 148.437 42.4225C148.674 42.0692 148.714 41.7158 148.555 41.4803C148.397 41.2054 148.121 41.0091 147.646 40.8128C147.212 40.6558 146.658 40.4987 146.026 40.4202C145.393 40.3417 144.682 40.3024 143.97 40.3417C143.733 40.3417 143.417 40.3417 142.982 40.3809C142.547 40.4202 142.073 40.4595 141.559 40.538C141.045 40.5773 140.531 40.695 139.978 40.7736C139.464 40.8913 138.99 41.0091 138.516 41.1662C138.081 41.3232 137.725 41.4803 137.448 41.6766C137.172 41.8336 137.053 42.0692 137.014 42.344Z" fill="#3F7229"/>
<path d="M168.2 50.1963C168.2 50.7067 168.24 51.1386 168.279 51.4134C168.319 51.6883 168.398 51.9238 168.517 52.0809C168.635 52.2379 168.833 52.3164 169.07 52.395C169.307 52.4342 169.663 52.4735 170.098 52.5127C171.165 52.5913 172.232 52.5913 173.26 52.4735C174.288 52.395 175.355 52.2379 176.422 52.0809C177.252 51.9238 178.003 52.0416 178.636 52.4735C179.268 52.9053 179.663 53.5335 179.821 54.358C179.979 55.261 179.821 56.007 179.347 56.6744C178.873 57.3418 178.201 57.7344 177.292 57.8915C174.446 58.4019 171.6 58.5197 168.754 58.3234C167.805 58.2448 166.936 58.0093 166.145 57.6559C165.354 57.3026 164.643 56.7137 164.09 55.9677C163.813 55.5751 163.536 55.1432 163.378 54.6721C163.18 54.201 163.022 53.7298 162.864 53.2194C162.588 52.1594 162.429 51.0601 162.35 49.9608C162.311 48.8615 162.271 47.7622 162.311 46.6236C162.311 45.5635 162.39 44.5035 162.469 43.4827C162.548 42.4619 162.746 41.4019 162.983 40.3811C163.26 39.2033 163.694 38.1825 164.248 37.2402C164.801 36.298 165.592 35.5127 166.659 34.9238C167.291 34.5312 167.963 34.2564 168.714 34.0601C169.426 33.8638 170.177 33.7853 170.888 33.8245C171.916 33.8245 172.944 33.8638 173.971 33.903C174.999 33.9423 175.987 33.9816 177.054 34.0601C177.845 34.1386 178.438 34.492 178.912 35.1201C179.387 35.7483 179.545 36.4943 179.466 37.3187C179.426 37.7113 179.268 38.104 179.11 38.418C178.912 38.7714 178.675 39.0462 178.398 39.2818C178.122 39.5174 177.805 39.6744 177.45 39.7922C177.094 39.91 176.699 39.9492 176.343 39.91C175.355 39.8314 174.406 39.7137 173.497 39.6351C172.548 39.5566 171.639 39.5566 170.691 39.7137C169.584 39.8314 168.912 40.3811 168.635 41.4411C168.556 41.873 168.438 42.3441 168.359 42.776C168.279 43.2471 168.161 43.7183 168.082 44.2679H171.125C171.442 44.2679 171.797 44.2679 172.114 44.2679C172.43 44.2679 172.746 44.2679 173.102 44.3072C173.892 44.3465 174.525 44.6605 175.078 45.2102C175.631 45.7991 175.869 46.4665 175.869 47.3303C175.869 48.1548 175.552 48.8222 175.039 49.3719C174.485 49.9215 173.813 50.1963 172.983 50.1963C172.272 50.1963 171.6 50.1963 170.888 50.1963C170.216 50.1963 169.505 50.1963 168.793 50.1963C168.714 50.1963 168.596 50.1963 168.517 50.2356C168.359 50.1571 168.279 50.1963 168.2 50.1963Z" fill="#3F7229"/>
<path d="M200.455 45.3672C201.206 45.7598 201.878 46.1916 202.431 46.7413C202.984 47.2517 203.419 47.8406 203.775 48.4295C204.091 49.0577 204.289 49.6859 204.368 50.3533C204.447 51.0207 204.368 51.6882 204.17 52.3556C203.893 53.1801 203.538 53.8868 203.063 54.4757C202.589 55.0646 202.075 55.4965 201.482 55.8891C200.889 56.2424 200.257 56.5565 199.585 56.7528C198.913 56.9492 198.201 57.1062 197.49 57.1847C196.779 57.2632 196.027 57.3418 195.316 57.3418C194.565 57.3418 193.853 57.3418 193.182 57.3418C192.984 57.3418 192.786 57.3418 192.628 57.3418C192.47 57.3418 192.272 57.3025 192.035 57.3025C191.996 57.381 191.956 57.4988 191.917 57.5773C191.877 57.6558 191.838 57.7344 191.798 57.8129C191.482 58.4803 191.008 58.9515 190.454 59.2655C189.861 59.5404 189.268 59.6189 188.636 59.4619C187.924 59.2655 187.371 58.9122 187.015 58.4018C186.66 57.8914 186.501 57.2632 186.501 56.5173C186.501 55.6928 186.541 54.9076 186.541 54.0831C186.541 53.2979 186.541 52.4734 186.501 51.6489C186.462 50.4711 186.422 49.3325 186.343 48.2332C186.304 47.0946 186.225 45.9561 186.185 44.8175C186.146 43.9145 186.185 43.0508 186.304 42.1478C186.422 41.2448 186.62 40.4203 186.936 39.6351C187.252 38.8498 187.648 38.1039 188.162 37.3972C188.675 36.7298 189.308 36.1016 190.059 35.6304C191.482 34.6882 192.984 34.0993 194.565 33.8244C196.146 33.5496 197.767 33.4711 199.427 33.5496C200.573 33.6281 201.522 33.8637 202.273 34.217C203.024 34.5704 203.656 35.0415 204.051 35.6304C204.486 36.2194 204.763 36.8475 204.842 37.5542C204.961 38.2609 204.921 39.0069 204.723 39.7528C204.526 40.4988 204.249 41.2448 203.814 41.9907C203.38 42.7367 202.826 43.4041 202.154 44.0323C201.877 44.2679 201.601 44.5034 201.324 44.739C201.047 44.8568 200.771 45.0923 200.455 45.3672ZM197.016 41.9515C197.806 41.4018 198.32 40.9699 198.597 40.5773C198.834 40.224 198.913 39.9099 198.794 39.6743C198.676 39.4388 198.439 39.2817 198.004 39.2032C197.609 39.1247 197.134 39.0854 196.66 39.0854C196.146 39.0854 195.632 39.1639 195.079 39.2817C194.525 39.3995 194.091 39.5173 193.735 39.6743C193.34 39.8314 192.984 40.0669 192.668 40.3418C192.351 40.6166 192.154 40.9699 192.035 41.4411C191.798 42.2263 191.719 42.7759 191.798 43.1685C191.877 43.5612 192.035 43.7967 192.312 43.9145C192.589 44.0323 192.905 44.0323 193.3 43.9145C193.695 43.7967 194.13 43.6397 194.565 43.4041C195 43.1685 195.435 42.933 195.869 42.6582C196.344 42.4226 196.739 42.187 197.016 41.9515ZM192.075 51.3741C192.707 51.6489 193.379 51.8452 194.051 51.9237C194.723 52.0415 195.356 52.0415 195.948 52.0023C196.66 51.963 197.213 51.7667 197.648 51.4526C198.083 51.1385 198.32 50.7852 198.439 50.3926C198.518 50 198.439 49.6466 198.162 49.2933C197.885 48.9399 197.371 48.7043 196.66 48.5473C196.107 48.4295 195.395 48.3903 194.605 48.4295C193.814 48.4688 192.905 48.508 191.877 48.5473C191.917 49.097 191.956 49.6073 191.996 50.0785C191.996 50.5104 192.035 50.9422 192.075 51.3741Z" fill="#3F7229"/>
<path d="M216.819 50.1963C216.819 50.7067 216.858 51.1386 216.898 51.4134C216.937 51.6883 217.016 51.9238 217.135 52.0809C217.254 52.2379 217.451 52.3164 217.688 52.395C217.926 52.4342 218.281 52.4735 218.716 52.5127C219.783 52.5913 220.851 52.5913 221.878 52.4735C222.906 52.395 223.973 52.2379 225.04 52.0809C225.87 51.9238 226.621 52.0416 227.254 52.4735C227.886 52.9053 228.282 53.5335 228.44 54.358C228.598 55.261 228.44 56.007 227.965 56.6744C227.491 57.3418 226.819 57.7344 225.91 57.8915C223.064 58.4019 220.218 58.5197 217.372 58.3234C216.423 58.2448 215.554 58.0093 214.763 57.6559C213.973 57.3026 213.261 56.7137 212.708 55.9677C212.431 55.5751 212.155 55.1432 211.996 54.6721C211.799 54.201 211.641 53.7298 211.483 53.2194C211.206 52.1594 211.048 51.0601 210.969 49.9608C210.929 48.8615 210.89 47.7622 210.929 46.6236C210.929 45.5635 211.008 44.5035 211.087 43.4827C211.166 42.4619 211.364 41.4019 211.601 40.3811C211.878 39.2033 212.313 38.1825 212.866 37.2402C213.419 36.298 214.21 35.5127 215.277 34.9238C215.91 34.5312 216.582 34.2564 217.333 34.0601C218.044 33.8638 218.795 33.7853 219.507 33.8245C220.534 33.8245 221.562 33.8638 222.59 33.903C223.617 33.9423 224.606 33.9816 225.673 34.0601C226.463 34.1386 227.056 34.492 227.531 35.1201C228.005 35.7483 228.163 36.4943 228.084 37.3187C228.044 37.7113 227.886 38.104 227.728 38.418C227.531 38.7714 227.293 39.0462 227.017 39.2818C226.74 39.5174 226.424 39.6744 226.068 39.7922C225.712 39.91 225.317 39.9492 224.961 39.91C223.973 39.8314 223.025 39.7137 222.115 39.6351C221.167 39.5566 220.258 39.5566 219.309 39.7137C218.202 39.8314 217.53 40.3811 217.254 41.4411C217.174 41.873 217.056 42.3441 216.977 42.776C216.898 43.2471 216.779 43.7183 216.7 44.2679H219.744C220.06 44.2679 220.416 44.2679 220.732 44.2679C221.048 44.2679 221.364 44.2679 221.72 44.3072C222.511 44.3465 223.143 44.6605 223.696 45.2102C224.25 45.7991 224.487 46.4665 224.487 47.3303C224.487 48.1548 224.171 48.8222 223.657 49.3719C223.104 49.9215 222.432 50.1963 221.602 50.1963C220.89 50.1963 220.218 50.1963 219.507 50.1963C218.835 50.1963 218.123 50.1963 217.412 50.1963C217.333 50.1963 217.214 50.1963 217.135 50.2356C217.016 50.1571 216.937 50.1963 216.819 50.1963Z" fill="#3F7229"/>
<path d="M241.8 52.3557C242.472 52.4342 243.104 52.4735 243.776 52.5128C244.409 52.5128 245.081 52.552 245.753 52.552C246.425 52.552 247.097 52.552 247.808 52.552C248.52 52.552 249.271 52.552 250.061 52.5913C250.417 52.5913 250.773 52.7091 251.049 52.8661C251.365 53.0232 251.603 53.2587 251.84 53.5335C252.037 53.8084 252.196 54.1225 252.314 54.4758C252.393 54.8292 252.433 55.1825 252.393 55.5751C252.354 55.9285 252.275 56.2426 252.116 56.5566C251.958 56.8707 251.761 57.1063 251.484 57.3419C251.247 57.5774 250.931 57.7345 250.614 57.8522C250.298 57.97 249.942 58.0486 249.587 58.0093C248.757 57.97 247.966 57.97 247.176 57.97C246.385 57.97 245.595 58.0093 244.804 58.0093C244.013 58.0093 243.262 58.0486 242.472 58.0486C241.681 58.0486 240.93 58.0093 240.14 57.8915C239.626 57.8523 239.152 57.6952 238.717 57.4596C238.282 57.2241 237.887 56.9493 237.531 56.6352C237.215 56.2818 236.938 55.8892 236.74 55.4573C236.543 55.0255 236.424 54.5543 236.424 54.0439C236.385 52.5913 236.345 51.0601 236.345 49.3719C236.345 47.7229 236.345 46.1525 236.385 44.6998C236.385 44.1502 236.385 43.522 236.424 42.8546C236.464 42.1871 236.464 41.4412 236.503 40.7345C236.543 40.0278 236.543 39.3211 236.582 38.6144C236.622 37.9077 236.622 37.3188 236.661 36.7691C236.701 35.9839 236.978 35.3165 237.491 34.8453C238.005 34.3349 238.638 34.0994 239.428 34.0994C240.219 34.0994 240.891 34.3349 241.405 34.8453C241.918 35.3557 242.195 35.9839 242.156 36.8084C242.156 37.5543 242.116 38.3396 242.077 39.2033C242.037 40.067 241.998 40.97 241.958 41.873C241.918 42.776 241.879 43.679 241.839 44.5428C241.8 45.4065 241.76 46.231 241.76 46.9377C241.76 47.7622 241.721 48.6259 241.721 49.6074C241.8 50.5497 241.8 51.4527 241.8 52.3557Z" fill="#3F7229"/>
<path d="M266.109 52.3557C266.781 52.4342 267.413 52.4735 268.085 52.5128C268.718 52.5128 269.39 52.552 270.062 52.552C270.734 52.552 271.406 52.552 272.117 52.552C272.829 52.552 273.58 52.552 274.37 52.5913C274.726 52.5913 275.082 52.7091 275.358 52.8661C275.675 53.0232 275.912 53.2587 276.149 53.5335C276.347 53.8084 276.505 54.1225 276.623 54.4758C276.702 54.8292 276.742 55.1825 276.702 55.5751C276.663 55.9285 276.584 56.2426 276.426 56.5566C276.268 56.8707 276.07 57.1063 275.793 57.3419C275.556 57.5774 275.24 57.7345 274.924 57.8522C274.607 57.97 274.252 58.0486 273.896 58.0093C273.066 57.97 272.275 57.97 271.485 57.97C270.694 57.97 269.904 58.0093 269.113 58.0093C268.323 58.0093 267.572 58.0486 266.781 58.0486C265.99 58.0486 265.239 58.0093 264.449 57.8915C263.935 57.8523 263.461 57.6952 263.026 57.4596C262.591 57.2241 262.196 56.9493 261.84 56.6352C261.524 56.2818 261.247 55.8892 261.05 55.4573C260.852 55.0255 260.733 54.5543 260.733 54.0439C260.694 52.5913 260.654 51.0601 260.654 49.3719C260.654 47.7229 260.654 46.1525 260.694 44.6998C260.694 44.1502 260.694 43.522 260.733 42.8546C260.773 42.1871 260.773 41.4412 260.812 40.7345C260.852 40.0278 260.852 39.3211 260.891 38.6144C260.931 37.9077 260.931 37.3188 260.971 36.7691C261.01 35.9839 261.287 35.3165 261.801 34.8453C262.314 34.3349 262.947 34.0994 263.737 34.0994C264.528 34.0994 265.2 34.3349 265.714 34.8453C266.228 35.3557 266.504 35.9839 266.465 36.8084C266.465 37.5543 266.425 38.3396 266.386 39.2033C266.346 40.067 266.307 40.97 266.267 41.873C266.228 42.776 266.188 43.679 266.149 44.5428C266.109 45.4065 266.07 46.231 266.07 46.9377C266.07 47.7622 266.03 48.6259 266.03 49.6074C266.109 50.5497 266.109 51.4527 266.109 52.3557Z" fill="#3F7229"/>
<path d="M60.2914 68.649C65.7462 50.1964 43.1762 45.9955 38.9863 45.9955C34.7569 45.9955 30.3299 41.559 30.0532 38.3788C29.816 35.1594 26.5748 31.2333 26.5748 31.2333C33.7687 26.3257 38.3143 15.4112 36.9704 14.7437C35.666 14.0763 31.2785 16.8246 27.8792 20.358C23.5707 24.8338 20.2504 30.4481 20.2504 30.4481C20.2504 30.4481 16.4163 30.9978 14.1633 33.1964C11.9498 35.4343 11.4359 38.104 9.93387 39.1248C8.43184 40.1063 6.45549 45.9955 14.8748 47.2518C23.294 48.4689 20.5667 50.7068 19.8156 53.141C19.0646 55.6144 18.6298 60.2865 20.8434 63.4666C23.0569 66.686 26.6143 72.3396 24.8751 74.0671C23.1359 75.7945 20.3295 78.5035 22.0687 79.4851C23.8079 80.4666 28.4326 78.0324 32.3062 74.4204C34.8755 72.0255 40.2512 73.5959 40.2512 73.5959C35.1126 69.0024 40.1721 63.5059 40.1721 63.5059C35.4684 72.104 48.5914 74.8523 45.864 75.559C43.1367 76.3049 40.686 74.7345 36.4566 74.7345C32.1876 74.7345 29.6579 79.6814 31.7528 79.6814H55.311C58.908 79.6814 56.813 75.0486 59.2637 75.0486C61.7539 75.0486 65.7066 76.0301 65.7066 70.8477C65.7462 65.7045 60.2914 68.649 60.2914 68.649Z" fill="#3F7229"/>
<path d="M26.8515 19.3373C27.6815 18.4735 28.5907 17.649 29.5393 16.8638C30.567 14.5867 31.239 12.8592 31.1599 12.6236C30.567 10.7391 20.8433 17.0209 18.8275 29.231C19.0251 29.1918 19.2227 29.1525 19.3808 29.1132C20.3295 27.5428 23.215 23.1063 26.8515 19.3373Z" fill="#3F7229"/>
</g>
<defs>
<clipPath id="clip0_5_23085">
<rect width="1395" height="5372" fill="white" transform="translate(-36 -74)"/>
</clipPath>
</defs>
</svg>
