<svg width="331" height="102" viewBox="0 0 331 102" fill="none" xmlns="http://www.w3.org/2000/svg">
<path d="M105.103 51.0393C103.126 51.0001 101.189 50.9608 99.2921 50.9216C97.3948 50.8823 95.458 50.843 93.4421 50.8038C93.363 51.7853 93.284 52.7276 93.2049 53.6698C93.1259 54.6121 93.0468 55.5151 92.9283 56.4574C92.8887 56.85 92.7701 57.2426 92.612 57.5567C92.4144 57.8708 92.2168 58.1848 91.9401 58.4204C91.6634 58.656 91.3472 58.8523 91.031 58.9701C90.6752 59.0878 90.3195 59.1271 89.9637 59.0878C89.1337 59.0093 88.5012 58.656 88.0269 58.0671C87.5526 57.4781 87.3945 56.7714 87.4735 55.9077C87.7502 52.9239 87.9874 50.0186 88.1059 47.1918C88.2245 44.365 88.2245 41.5382 88.0664 38.7114C88.0269 37.8869 88.2245 37.2195 88.6593 36.6698C89.1337 36.1202 89.7266 35.8061 90.4776 35.7276C91.3076 35.649 92.0191 35.8453 92.612 36.3165C93.2049 36.7876 93.5212 37.455 93.5607 38.3188C93.6002 39.3396 93.6397 40.3604 93.6397 41.3419C93.6397 42.3234 93.6793 43.3442 93.6793 44.365V45.2287C95.5766 45.425 97.4343 45.5035 99.2921 45.5035C101.15 45.5035 103.047 45.5035 104.984 45.5035V42.7945C104.984 42.0093 104.984 41.2241 104.984 40.4389C104.984 39.6537 104.984 38.8684 104.984 38.0832C104.984 37.2587 105.261 36.5913 105.775 36.0417C106.288 35.5313 106.96 35.2564 107.79 35.2957C108.581 35.2957 109.253 35.6098 109.727 36.1594C110.241 36.7091 110.478 37.3765 110.518 38.201C110.518 39.5359 110.557 40.9493 110.597 42.4412C110.636 43.9331 110.636 45.425 110.676 46.9562C110.715 48.4874 110.715 49.9793 110.755 51.4712C110.795 52.9631 110.795 54.3765 110.834 55.7114C110.834 55.947 110.834 56.2218 110.795 56.4966C110.795 56.7714 110.715 57.007 110.636 57.2426C110.557 57.5174 110.399 57.7922 110.202 58.0278C110.004 58.2634 109.767 58.4204 109.53 58.5774C109.292 58.7345 109.016 58.813 108.7 58.8915C108.423 58.9701 108.107 58.9701 107.83 58.9308C107.158 58.8523 106.605 58.5774 106.17 58.1063C105.735 57.6744 105.458 57.0855 105.379 56.4181C105.34 56.1433 105.3 55.7899 105.3 55.358C105.3 54.9262 105.3 54.4943 105.261 54.0232C105.261 53.552 105.261 53.1202 105.221 52.7276C105.221 52.2957 105.182 51.9816 105.182 51.7068C105.182 51.6283 105.182 51.5105 105.182 51.432C105.142 51.2749 105.142 51.1571 105.103 51.0393Z" fill="#3F7229"/>
<path d="M137.08 52.6881C134.748 52.7274 132.455 52.7666 130.242 52.8059C128.028 52.8451 125.775 52.8844 123.562 52.9237C123.364 53.4341 123.206 53.9837 123.127 54.4941C123.048 55.0045 123.008 55.5542 122.969 56.1038C122.969 56.2609 122.929 56.4572 122.929 56.6535C122.929 56.8498 122.89 57.0068 122.85 57.2031C122.692 57.9098 122.297 58.4595 121.744 58.8128C121.19 59.1662 120.558 59.3625 119.846 59.2447C119.135 59.1662 118.581 58.8521 118.107 58.3417C117.672 57.8313 117.435 57.2424 117.435 56.5357C117.435 55.4756 117.514 54.4156 117.712 53.3948C117.909 52.374 118.147 51.3532 118.423 50.3324C118.739 49.1546 119.095 47.9375 119.53 46.6812C119.965 45.4248 120.439 44.2077 120.992 43.0299C121.546 41.8521 122.178 40.7528 122.89 39.6927C123.601 38.6719 124.392 37.7689 125.301 37.023C125.854 36.5911 126.447 36.1985 127.04 35.9237C127.673 35.6096 128.305 35.4133 128.977 35.3348C129.649 35.2562 130.321 35.2562 131.032 35.374C131.744 35.4918 132.416 35.7666 133.088 36.1592C134.471 36.9837 135.736 38.0045 136.803 39.3001C137.871 40.5957 138.78 41.9699 139.531 43.501C140.282 44.993 140.914 46.5634 141.428 48.1731C141.942 49.7828 142.298 51.2747 142.574 52.6881C142.653 53.2378 142.732 53.8267 142.732 54.3763C142.732 54.9652 142.732 55.5149 142.732 56.0646C142.693 56.889 142.416 57.5172 141.823 58.0276C141.27 58.538 140.598 58.7343 139.768 58.695C139.017 58.6558 138.384 58.3809 137.91 57.8313C137.436 57.2816 137.199 56.6142 137.199 55.829C137.199 55.3186 137.159 54.8475 137.159 54.3371C137.159 53.8267 137.12 53.277 137.08 52.6881ZM135.222 47.2701C134.867 46.3671 134.471 45.5819 134.036 44.8359C133.602 44.1292 133.088 43.4225 132.574 42.8336C131.942 42.1269 131.349 41.6558 130.795 41.4202C130.242 41.1846 129.728 41.1454 129.254 41.3024C128.779 41.4595 128.345 41.7343 127.949 42.1662C127.554 42.598 127.198 43.1084 126.843 43.6581C126.526 44.247 126.21 44.8752 125.933 45.5426C125.657 46.21 125.38 46.8382 125.143 47.4271C126.882 47.3879 128.582 47.3486 130.202 47.3486C131.823 47.3486 133.523 47.3094 135.222 47.2701Z" fill="#3F7229"/>
<path d="M155.579 52.9629C155.579 53.0807 155.579 53.277 155.579 53.5126C155.579 53.7482 155.579 54.023 155.539 54.2585C155.539 54.5334 155.539 54.7689 155.5 55.0045C155.5 55.2401 155.5 55.3971 155.5 55.4756C155.5 56.4572 155.223 57.2424 154.709 57.8706C154.195 58.4987 153.563 58.8521 152.812 58.8913C152.417 58.8913 152.061 58.8128 151.745 58.6558C151.428 58.4987 151.112 58.2632 150.835 57.9883C150.559 57.7135 150.361 57.3602 150.203 56.9283C150.045 56.5357 149.966 56.1038 149.966 55.6327C149.926 54.7297 149.926 53.8267 149.926 52.9237C149.926 52.0207 149.966 51.1177 150.005 50.1754C150.084 48.8798 150.164 47.5449 150.243 46.2493C150.322 44.9537 150.44 43.6188 150.519 42.3232C150.717 39.4572 151.942 37.5726 154.274 36.6304C155.776 36.0415 157.278 35.6096 158.78 35.374C160.282 35.1385 161.864 35.0207 163.405 35.0599C164.354 35.0599 165.263 35.1385 166.212 35.2562C167.121 35.374 168.069 35.5703 169.018 35.8844C169.848 36.1592 170.599 36.5126 171.271 36.9837C171.943 37.4548 172.575 38.0438 173.05 38.7505C173.524 39.4179 173.88 40.1639 174.117 40.9883C174.354 41.8128 174.433 42.7158 174.275 43.6973C174.156 44.4433 173.919 45.1107 173.484 45.7389C173.089 46.3671 172.575 46.956 172.022 47.4664C171.429 47.9768 170.797 48.4479 170.085 48.8405C169.374 49.2331 168.662 49.6257 167.911 49.9398C167.2 50.2539 166.488 50.5288 165.816 50.7643C165.144 50.9999 164.551 51.1569 163.998 51.314C164.393 51.4318 164.907 51.5888 165.5 51.7458C166.132 51.9029 166.765 52.0599 167.397 52.2562C168.03 52.4133 168.662 52.5703 169.255 52.7274C169.848 52.8844 170.322 53.0022 170.639 53.12C170.718 53.1592 170.836 53.1985 170.915 53.1985C170.994 53.1985 171.113 53.2378 171.192 53.277C171.785 53.4733 172.22 53.7874 172.457 54.2193C172.733 54.6512 172.892 55.083 172.892 55.5542C172.931 56.0253 172.852 56.5357 172.654 57.0068C172.457 57.4779 172.18 57.8706 171.824 58.2239C171.469 58.5773 170.994 58.8128 170.48 58.9306C169.967 59.0484 169.413 59.0484 168.82 58.8521C167.516 58.4202 166.251 57.9491 165.144 57.4779C163.998 56.9675 162.931 56.4964 161.864 55.986C160.796 55.4756 159.769 54.9652 158.741 54.4548C157.792 53.8659 156.725 53.3948 155.579 52.9629ZM156.014 43.344C155.934 44.1292 155.855 44.9144 155.816 45.6997C155.776 46.4849 155.697 47.3094 155.658 48.1731C156.923 48.016 158.148 47.7805 159.413 47.5057C160.678 47.2308 161.903 46.8382 163.168 46.2493C164.433 45.6604 165.381 45.15 166.053 44.6789C166.725 44.2077 167.2 43.7759 167.437 43.4225C167.674 43.0692 167.714 42.7158 167.555 42.4803C167.397 42.2054 167.121 42.0091 166.646 41.8128C166.212 41.6558 165.658 41.4987 165.026 41.4202C164.393 41.3417 163.682 41.3024 162.97 41.3417C162.733 41.3417 162.417 41.3417 161.982 41.3809C161.547 41.4202 161.073 41.4595 160.559 41.538C160.045 41.5773 159.531 41.695 158.978 41.7736C158.464 41.8913 157.99 42.0091 157.516 42.1662C157.081 42.3232 156.725 42.4803 156.448 42.6766C156.172 42.8336 156.053 43.0692 156.014 43.344Z" fill="#3F7229"/>
<path d="M187.2 51.1963C187.2 51.7067 187.24 52.1386 187.279 52.4134C187.319 52.6883 187.398 52.9238 187.517 53.0809C187.635 53.2379 187.833 53.3164 188.07 53.395C188.307 53.4342 188.663 53.4735 189.098 53.5127C190.165 53.5913 191.232 53.5913 192.26 53.4735C193.288 53.395 194.355 53.2379 195.422 53.0809C196.252 52.9238 197.003 53.0416 197.636 53.4735C198.268 53.9053 198.663 54.5335 198.821 55.358C198.979 56.261 198.821 57.007 198.347 57.6744C197.873 58.3418 197.201 58.7344 196.292 58.8915C193.446 59.4019 190.6 59.5197 187.754 59.3234C186.805 59.2448 185.936 59.0093 185.145 58.6559C184.354 58.3026 183.643 57.7137 183.09 56.9677C182.813 56.5751 182.536 56.1432 182.378 55.6721C182.18 55.201 182.022 54.7298 181.864 54.2194C181.588 53.1594 181.429 52.0601 181.35 50.9608C181.311 49.8615 181.271 48.7622 181.311 47.6236C181.311 46.5635 181.39 45.5035 181.469 44.4827C181.548 43.4619 181.746 42.4019 181.983 41.3811C182.26 40.2033 182.694 39.1825 183.248 38.2402C183.801 37.298 184.592 36.5127 185.659 35.9238C186.291 35.5312 186.963 35.2564 187.714 35.0601C188.426 34.8638 189.177 34.7853 189.888 34.8245C190.916 34.8245 191.944 34.8638 192.971 34.903C193.999 34.9423 194.987 34.9816 196.054 35.0601C196.845 35.1386 197.438 35.492 197.912 36.1201C198.387 36.7483 198.545 37.4943 198.466 38.3187C198.426 38.7113 198.268 39.104 198.11 39.418C197.912 39.7714 197.675 40.0462 197.398 40.2818C197.122 40.5174 196.805 40.6744 196.45 40.7922C196.094 40.91 195.699 40.9492 195.343 40.91C194.355 40.8314 193.406 40.7137 192.497 40.6351C191.548 40.5566 190.639 40.5566 189.691 40.7137C188.584 40.8314 187.912 41.3811 187.635 42.4411C187.556 42.873 187.438 43.3441 187.359 43.776C187.279 44.2471 187.161 44.7183 187.082 45.2679H190.125C190.442 45.2679 190.797 45.2679 191.114 45.2679C191.43 45.2679 191.746 45.2679 192.102 45.3072C192.892 45.3465 193.525 45.6605 194.078 46.2102C194.631 46.7991 194.869 47.4665 194.869 48.3303C194.869 49.1548 194.552 49.8222 194.039 50.3719C193.485 50.9215 192.813 51.1963 191.983 51.1963C191.272 51.1963 190.6 51.1963 189.888 51.1963C189.216 51.1963 188.505 51.1963 187.793 51.1963C187.714 51.1963 187.596 51.1963 187.517 51.2356C187.359 51.1571 187.279 51.1963 187.2 51.1963Z" fill="#3F7229"/>
<path d="M219.455 46.3672C220.206 46.7598 220.878 47.1916 221.431 47.7413C221.984 48.2517 222.419 48.8406 222.775 49.4295C223.091 50.0577 223.289 50.6859 223.368 51.3533C223.447 52.0207 223.368 52.6882 223.17 53.3556C222.893 54.1801 222.538 54.8868 222.063 55.4757C221.589 56.0646 221.075 56.4965 220.482 56.8891C219.889 57.2424 219.257 57.5565 218.585 57.7528C217.913 57.9492 217.201 58.1062 216.49 58.1847C215.779 58.2632 215.027 58.3418 214.316 58.3418C213.565 58.3418 212.853 58.3418 212.182 58.3418C211.984 58.3418 211.786 58.3418 211.628 58.3418C211.47 58.3418 211.272 58.3025 211.035 58.3025C210.996 58.381 210.956 58.4988 210.917 58.5773C210.877 58.6558 210.838 58.7344 210.798 58.8129C210.482 59.4803 210.008 59.9515 209.454 60.2655C208.861 60.5404 208.268 60.6189 207.636 60.4619C206.924 60.2655 206.371 59.9122 206.015 59.4018C205.66 58.8914 205.501 58.2632 205.501 57.5173C205.501 56.6928 205.541 55.9076 205.541 55.0831C205.541 54.2979 205.541 53.4734 205.501 52.6489C205.462 51.4711 205.422 50.3325 205.343 49.2332C205.304 48.0946 205.225 46.9561 205.185 45.8175C205.146 44.9145 205.185 44.0508 205.304 43.1478C205.422 42.2448 205.62 41.4203 205.936 40.6351C206.252 39.8498 206.648 39.1039 207.162 38.3972C207.675 37.7298 208.308 37.1016 209.059 36.6304C210.482 35.6882 211.984 35.0993 213.565 34.8244C215.146 34.5496 216.767 34.4711 218.427 34.5496C219.573 34.6281 220.522 34.8637 221.273 35.217C222.024 35.5704 222.656 36.0415 223.051 36.6304C223.486 37.2194 223.763 37.8475 223.842 38.5542C223.961 39.2609 223.921 40.0069 223.723 40.7528C223.526 41.4988 223.249 42.2448 222.814 42.9907C222.38 43.7367 221.826 44.4041 221.154 45.0323C220.877 45.2679 220.601 45.5034 220.324 45.739C220.047 45.8568 219.771 46.0923 219.455 46.3672ZM216.016 42.9515C216.806 42.4018 217.32 41.9699 217.597 41.5773C217.834 41.224 217.913 40.9099 217.794 40.6743C217.676 40.4388 217.439 40.2817 217.004 40.2032C216.609 40.1247 216.134 40.0854 215.66 40.0854C215.146 40.0854 214.632 40.1639 214.079 40.2817C213.525 40.3995 213.091 40.5173 212.735 40.6743C212.34 40.8314 211.984 41.0669 211.668 41.3418C211.351 41.6166 211.154 41.9699 211.035 42.4411C210.798 43.2263 210.719 43.7759 210.798 44.1685C210.877 44.5612 211.035 44.7967 211.312 44.9145C211.589 45.0323 211.905 45.0323 212.3 44.9145C212.695 44.7967 213.13 44.6397 213.565 44.4041C214 44.1685 214.435 43.933 214.869 43.6582C215.344 43.4226 215.739 43.187 216.016 42.9515ZM211.075 52.3741C211.707 52.6489 212.379 52.8452 213.051 52.9237C213.723 53.0415 214.356 53.0415 214.948 53.0023C215.66 52.963 216.213 52.7667 216.648 52.4526C217.083 52.1385 217.32 51.7852 217.439 51.3926C217.518 51 217.439 50.6466 217.162 50.2933C216.885 49.9399 216.371 49.7043 215.66 49.5473C215.107 49.4295 214.395 49.3903 213.605 49.4295C212.814 49.4688 211.905 49.508 210.877 49.5473C210.917 50.097 210.956 50.6073 210.996 51.0785C210.996 51.5104 211.035 51.9422 211.075 52.3741Z" fill="#3F7229"/>
<path d="M235.819 51.1963C235.819 51.7067 235.858 52.1386 235.898 52.4134C235.937 52.6883 236.016 52.9238 236.135 53.0809C236.254 53.2379 236.451 53.3164 236.688 53.395C236.926 53.4342 237.281 53.4735 237.716 53.5127C238.783 53.5913 239.851 53.5913 240.878 53.4735C241.906 53.395 242.973 53.2379 244.04 53.0809C244.87 52.9238 245.621 53.0416 246.254 53.4735C246.886 53.9053 247.282 54.5335 247.44 55.358C247.598 56.261 247.44 57.007 246.965 57.6744C246.491 58.3418 245.819 58.7344 244.91 58.8915C242.064 59.4019 239.218 59.5197 236.372 59.3234C235.423 59.2448 234.554 59.0093 233.763 58.6559C232.973 58.3026 232.261 57.7137 231.708 56.9677C231.431 56.5751 231.155 56.1432 230.996 55.6721C230.799 55.201 230.641 54.7298 230.483 54.2194C230.206 53.1594 230.048 52.0601 229.969 50.9608C229.929 49.8615 229.89 48.7622 229.929 47.6236C229.929 46.5635 230.008 45.5035 230.087 44.4827C230.166 43.4619 230.364 42.4019 230.601 41.3811C230.878 40.2033 231.313 39.1825 231.866 38.2402C232.419 37.298 233.21 36.5127 234.277 35.9238C234.91 35.5312 235.582 35.2564 236.333 35.0601C237.044 34.8638 237.795 34.7853 238.507 34.8245C239.534 34.8245 240.562 34.8638 241.59 34.903C242.617 34.9423 243.606 34.9816 244.673 35.0601C245.463 35.1386 246.056 35.492 246.531 36.1201C247.005 36.7483 247.163 37.4943 247.084 38.3187C247.044 38.7113 246.886 39.104 246.728 39.418C246.531 39.7714 246.293 40.0462 246.017 40.2818C245.74 40.5174 245.424 40.6744 245.068 40.7922C244.712 40.91 244.317 40.9492 243.961 40.91C242.973 40.8314 242.025 40.7137 241.115 40.6351C240.167 40.5566 239.258 40.5566 238.309 40.7137C237.202 40.8314 236.53 41.3811 236.254 42.4411C236.174 42.873 236.056 43.3441 235.977 43.776C235.898 44.2471 235.779 44.7183 235.7 45.2679H238.744C239.06 45.2679 239.416 45.2679 239.732 45.2679C240.048 45.2679 240.364 45.2679 240.72 45.3072C241.511 45.3465 242.143 45.6605 242.696 46.2102C243.25 46.7991 243.487 47.4665 243.487 48.3303C243.487 49.1548 243.171 49.8222 242.657 50.3719C242.104 50.9215 241.432 51.1963 240.602 51.1963C239.89 51.1963 239.218 51.1963 238.507 51.1963C237.835 51.1963 237.123 51.1963 236.412 51.1963C236.333 51.1963 236.214 51.1963 236.135 51.2356C236.016 51.1571 235.937 51.1963 235.819 51.1963Z" fill="#3F7229"/>
<path d="M260.8 53.3557C261.472 53.4342 262.104 53.4735 262.776 53.5128C263.409 53.5128 264.081 53.552 264.753 53.552C265.425 53.552 266.097 53.552 266.808 53.552C267.52 53.552 268.271 53.552 269.061 53.5913C269.417 53.5913 269.773 53.7091 270.049 53.8661C270.365 54.0232 270.603 54.2587 270.84 54.5335C271.037 54.8084 271.196 55.1225 271.314 55.4758C271.393 55.8292 271.433 56.1825 271.393 56.5751C271.354 56.9285 271.275 57.2426 271.116 57.5566C270.958 57.8707 270.761 58.1063 270.484 58.3419C270.247 58.5774 269.931 58.7345 269.614 58.8522C269.298 58.97 268.942 59.0486 268.587 59.0093C267.757 58.97 266.966 58.97 266.176 58.97C265.385 58.97 264.595 59.0093 263.804 59.0093C263.013 59.0093 262.262 59.0486 261.472 59.0486C260.681 59.0486 259.93 59.0093 259.14 58.8915C258.626 58.8523 258.152 58.6952 257.717 58.4596C257.282 58.2241 256.887 57.9493 256.531 57.6352C256.215 57.2818 255.938 56.8892 255.74 56.4573C255.543 56.0255 255.424 55.5543 255.424 55.0439C255.385 53.5913 255.345 52.0601 255.345 50.3719C255.345 48.7229 255.345 47.1525 255.385 45.6998C255.385 45.1502 255.385 44.522 255.424 43.8546C255.464 43.1871 255.464 42.4412 255.503 41.7345C255.543 41.0278 255.543 40.3211 255.582 39.6144C255.622 38.9077 255.622 38.3188 255.661 37.7691C255.701 36.9839 255.978 36.3165 256.491 35.8453C257.005 35.3349 257.638 35.0994 258.428 35.0994C259.219 35.0994 259.891 35.3349 260.405 35.8453C260.918 36.3557 261.195 36.9839 261.156 37.8084C261.156 38.5543 261.116 39.3396 261.077 40.2033C261.037 41.067 260.998 41.97 260.958 42.873C260.918 43.776 260.879 44.679 260.839 45.5428C260.8 46.4065 260.76 47.231 260.76 47.9377C260.76 48.7622 260.721 49.6259 260.721 50.6074C260.8 51.5497 260.8 52.4527 260.8 53.3557Z" fill="#3F7229"/>
<path d="M285.109 53.3557C285.781 53.4342 286.413 53.4735 287.085 53.5128C287.718 53.5128 288.39 53.552 289.062 53.552C289.734 53.552 290.406 53.552 291.117 53.552C291.829 53.552 292.58 53.552 293.37 53.5913C293.726 53.5913 294.082 53.7091 294.358 53.8661C294.675 54.0232 294.912 54.2587 295.149 54.5335C295.347 54.8084 295.505 55.1225 295.623 55.4758C295.702 55.8292 295.742 56.1825 295.702 56.5751C295.663 56.9285 295.584 57.2426 295.426 57.5566C295.268 57.8707 295.07 58.1063 294.793 58.3419C294.556 58.5774 294.24 58.7345 293.924 58.8522C293.607 58.97 293.252 59.0486 292.896 59.0093C292.066 58.97 291.275 58.97 290.485 58.97C289.694 58.97 288.904 59.0093 288.113 59.0093C287.323 59.0093 286.572 59.0486 285.781 59.0486C284.99 59.0486 284.239 59.0093 283.449 58.8915C282.935 58.8523 282.461 58.6952 282.026 58.4596C281.591 58.2241 281.196 57.9493 280.84 57.6352C280.524 57.2818 280.247 56.8892 280.05 56.4573C279.852 56.0255 279.733 55.5543 279.733 55.0439C279.694 53.5913 279.654 52.0601 279.654 50.3719C279.654 48.7229 279.654 47.1525 279.694 45.6998C279.694 45.1502 279.694 44.522 279.733 43.8546C279.773 43.1871 279.773 42.4412 279.812 41.7345C279.852 41.0278 279.852 40.3211 279.891 39.6144C279.931 38.9077 279.931 38.3188 279.971 37.7691C280.01 36.9839 280.287 36.3165 280.801 35.8453C281.314 35.3349 281.947 35.0994 282.737 35.0994C283.528 35.0994 284.2 35.3349 284.714 35.8453C285.228 36.3557 285.504 36.9839 285.465 37.8084C285.465 38.5543 285.425 39.3396 285.386 40.2033C285.346 41.067 285.307 41.97 285.267 42.873C285.228 43.776 285.188 44.679 285.149 45.5428C285.109 46.4065 285.07 47.231 285.07 47.9377C285.07 48.7622 285.03 49.6259 285.03 50.6074C285.109 51.5497 285.109 52.4527 285.109 53.3557Z" fill="#3F7229"/>
<path d="M79.2914 69.649C84.7462 51.1964 62.1762 46.9955 57.9863 46.9955C53.7569 46.9955 49.3299 42.559 49.0532 39.3788C48.816 36.1594 45.5748 32.2333 45.5748 32.2333C52.7687 27.3257 57.3143 16.4112 55.9704 15.7437C54.666 15.0763 50.2785 17.8246 46.8792 21.358C42.5707 25.8338 39.2504 31.4481 39.2504 31.4481C39.2504 31.4481 35.4163 31.9978 33.1633 34.1964C30.9498 36.4343 30.4359 39.104 28.9339 40.1248C27.4318 41.1063 25.4555 46.9955 33.8748 48.2518C42.294 49.4689 39.5667 51.7068 38.8156 54.141C38.0646 56.6144 37.6298 61.2865 39.8434 64.4666C42.0569 67.686 45.6143 73.3396 43.8751 75.0671C42.1359 76.7945 39.3295 79.5035 41.0687 80.4851C42.8079 81.4666 47.4326 79.0324 51.3062 75.4204C53.8755 73.0255 59.2512 74.5959 59.2512 74.5959C54.1126 70.0024 59.1721 64.5059 59.1721 64.5059C54.4684 73.104 67.5914 75.8523 64.864 76.559C62.1367 77.3049 59.686 75.7345 55.4566 75.7345C51.1876 75.7345 48.6579 80.6814 50.7528 80.6814H74.311C77.908 80.6814 75.813 76.0486 78.2637 76.0486C80.7539 76.0486 84.7066 77.0301 84.7066 71.8477C84.7462 66.7045 79.2914 69.649 79.2914 69.649Z" fill="#3F7229"/>
<path d="M45.8515 20.3373C46.6815 19.4735 47.5907 18.649 48.5393 17.8638C49.567 15.5867 50.239 13.8592 50.1599 13.6236C49.567 11.7391 39.8433 18.0209 37.8275 30.231C38.0251 30.1918 38.2227 30.1525 38.3808 30.1132C39.3295 28.5428 42.215 24.1063 45.8515 20.3373Z" fill="#3F7229"/>
</svg>
