<?xml version="1.0" encoding="utf-8"?>
<!-- Generator: Adobe Illustrator 27.4.1, SVG Export Plug-In . SVG Version: 6.00 Build 0)  -->
<svg version="1.1" id="Layer_1" xmlns="http://www.w3.org/2000/svg" xmlns:xlink="http://www.w3.org/1999/xlink" x="0px" y="0px"
	 viewBox="0 0 268.1 67.2" style="enable-background:new 0 0 268.1 67.2;" xml:space="preserve">
<style type="text/css">
	.st0{fill:#3F7229;}
</style>
<path class="st0" d="M77.5,37.7c-2,0-3.9-0.1-5.8-0.1s-3.8-0.1-5.8-0.1c-0.1,1-0.2,1.9-0.2,2.9c-0.1,0.9-0.2,1.8-0.3,2.8
	c0,0.4-0.2,0.8-0.3,1.1c-0.2,0.3-0.4,0.6-0.7,0.9c-0.3,0.2-0.6,0.4-0.9,0.5c-0.4,0.1-0.7,0.2-1.1,0.1c-0.8-0.1-1.5-0.4-1.9-1
	c-0.5-0.6-0.6-1.3-0.6-2.2c0.3-3,0.5-5.9,0.6-8.7s0.1-5.7,0-8.5c0-0.8,0.2-1.5,0.6-2c0.5-0.5,1.1-0.9,1.8-0.9
	c0.8-0.1,1.5,0.1,2.1,0.6s0.9,1.1,0.9,2c0,1,0.1,2,0.1,3s0,2,0,3V32c1.9,0.2,3.8,0.3,5.6,0.3c1.9,0,3.8,0,5.7,0v-2.7
	c0-0.8,0-1.6,0-2.4s0-1.6,0-2.4s0.3-1.5,0.8-2s1.2-0.8,2-0.7c0.8,0,1.5,0.3,1.9,0.9c0.5,0.5,0.8,1.2,0.8,2c0,1.3,0,2.7,0.1,4.2
	c0,1.5,0,3,0.1,4.5c0,1.5,0,3,0.1,4.5c0,1.5,0,2.9,0.1,4.2c0,0.2,0,0.5,0,0.8s-0.1,0.5-0.2,0.7c-0.1,0.3-0.2,0.5-0.4,0.8
	c-0.2,0.2-0.4,0.4-0.7,0.5c-0.2,0.2-0.5,0.2-0.8,0.3s-0.6,0.1-0.9,0c-0.7-0.1-1.2-0.4-1.7-0.8c-0.4-0.4-0.7-1-0.8-1.7
	c0-0.3-0.1-0.6-0.1-1.1c0-0.4,0-0.9,0-1.3c0-0.5,0-0.9,0-1.3c0-0.4,0-0.7,0-1c0-0.1,0-0.2,0-0.3C77.5,38,77.5,37.9,77.5,37.7z"/>
<path class="st0" d="M109.5,39.4c-2.3,0-4.6,0.1-6.8,0.1c-2.2,0-4.5,0.1-6.7,0.1c-0.2,0.5-0.4,1.1-0.4,1.6c-0.1,0.5-0.1,1.1-0.2,1.6
	c0,0.2,0,0.4,0,0.5s0,0.4-0.1,0.5c-0.2,0.7-0.6,1.3-1.1,1.6c-0.6,0.4-1.2,0.5-1.9,0.4c-0.7-0.1-1.3-0.4-1.7-0.9
	c-0.4-0.5-0.7-1.1-0.7-1.8c0-1.1,0.1-2.1,0.3-3.1c0.2-1,0.4-2,0.7-3.1c0.3-1.2,0.7-2.4,1.1-3.7s0.9-2.5,1.5-3.7s1.2-2.3,1.9-3.3
	c0.7-1,1.5-1.9,2.4-2.7c0.6-0.4,1.1-0.8,1.7-1.1c0.6-0.3,1.3-0.5,1.9-0.6c0.7-0.1,1.3-0.1,2.1,0c0.7,0.1,1.4,0.4,2.1,0.8
	c1.4,0.8,2.6,1.8,3.7,3.1c1.1,1.3,2,2.7,2.7,4.2c0.8,1.5,1.4,3.1,1.9,4.7c0.5,1.6,0.9,3.1,1.1,4.5c0.1,0.5,0.2,1.1,0.2,1.7
	c0,0.6,0,1.1,0,1.7c0,0.8-0.3,1.5-0.9,2s-1.2,0.7-2.1,0.7c-0.8,0-1.4-0.3-1.9-0.9c-0.5-0.5-0.7-1.2-0.7-2c0-0.5,0-1,0-1.5
	C109.6,40.5,109.5,40,109.5,39.4z M107.6,34c-0.4-0.9-0.8-1.7-1.2-2.4c-0.4-0.7-0.9-1.4-1.5-2c-0.6-0.7-1.2-1.2-1.8-1.4
	c-0.6-0.2-1.1-0.3-1.5-0.1c-0.5,0.2-0.9,0.4-1.3,0.9c-0.4,0.4-0.8,0.9-1.1,1.5c-0.3,0.6-0.6,1.2-0.9,1.9s-0.6,1.3-0.8,1.9
	c1.7,0,3.4-0.1,5.1-0.1C104.2,34.1,105.9,34,107.6,34z"/>
<path class="st0" d="M128,39.7c0,0.1,0,0.3,0,0.5s0,0.5,0,0.7c0,0.3,0,0.5,0,0.7s0,0.4,0,0.5c0,1-0.3,1.8-0.8,2.4
	c-0.5,0.6-1.1,1-1.9,1c-0.4,0-0.8-0.1-1.1-0.2c-0.3-0.2-0.6-0.4-0.9-0.7s-0.5-0.6-0.6-1.1c-0.2-0.4-0.2-0.8-0.2-1.3
	c0-0.9,0-1.8,0-2.7s0-1.8,0.1-2.7c0.1-1.3,0.2-2.6,0.2-3.9c0.1-1.3,0.2-2.6,0.3-3.9c0.2-2.9,1.4-4.8,3.8-5.7c1.5-0.6,3-1,4.5-1.3
	c1.5-0.2,3.1-0.4,4.6-0.3c0.9,0,1.9,0.1,2.8,0.2c0.9,0.1,1.9,0.3,2.8,0.6c0.8,0.3,1.6,0.6,2.3,1.1s1.3,1.1,1.8,1.8
	c0.5,0.7,0.8,1.4,1.1,2.2c0.2,0.8,0.3,1.7,0.2,2.7c-0.1,0.7-0.4,1.4-0.8,2c-0.4,0.6-0.9,1.2-1.5,1.7s-1.2,1-1.9,1.4
	s-1.4,0.8-2.2,1.1c-0.7,0.3-1.4,0.6-2.1,0.8c-0.7,0.2-1.3,0.4-1.8,0.5c0.4,0.1,0.9,0.3,1.5,0.4c0.6,0.2,1.3,0.3,1.9,0.5
	c0.6,0.2,1.3,0.3,1.9,0.5c0.6,0.2,1.1,0.3,1.4,0.4c0.1,0,0.2,0.1,0.3,0.1s0.2,0,0.3,0.1c0.6,0.2,1,0.5,1.3,0.9s0.4,0.9,0.4,1.3
	c0,0.5,0,1-0.2,1.5s-0.5,0.9-0.8,1.2c-0.4,0.4-0.8,0.6-1.3,0.7c-0.5,0.1-1.1,0.1-1.7-0.1c-1.3-0.4-2.6-0.9-3.7-1.4
	c-1.1-0.5-2.2-1-3.3-1.5s-2.1-1-3.1-1.5C130.2,40.6,129.1,40.1,128,39.7z M128.4,30.1c-0.1,0.8-0.2,1.6-0.2,2.4s-0.1,1.6-0.2,2.5
	c1.3-0.2,2.5-0.4,3.8-0.7s2.5-0.7,3.8-1.3s2.2-1.1,2.9-1.6s1.1-0.9,1.4-1.3c0.2-0.4,0.3-0.7,0.1-0.9c-0.2-0.3-0.4-0.5-0.9-0.7
	c-0.4-0.2-1-0.3-1.6-0.4s-1.3-0.1-2.1-0.1c-0.2,0-0.6,0-1,0s-0.9,0.1-1.4,0.2c-0.5,0-1,0.2-1.6,0.2c-0.5,0.1-1,0.2-1.5,0.4
	c-0.4,0.2-0.8,0.3-1.1,0.5C128.6,29.5,128.5,29.8,128.4,30.1z"/>
<path class="st0" d="M159.6,37.9c0,0.5,0,0.9,0.1,1.2c0,0.3,0.1,0.5,0.2,0.7c0.1,0.2,0.3,0.2,0.6,0.3c0.2,0,0.6,0.1,1,0.1
	c1.1,0.1,2.1,0.1,3.2,0c1-0.1,2.1-0.2,3.2-0.4c0.8-0.2,1.6,0,2.2,0.4c0.6,0.4,1,1.1,1.2,1.9c0.2,0.9,0,1.6-0.5,2.3s-1.1,1.1-2.1,1.2
	c-2.8,0.5-5.7,0.6-8.5,0.4c-0.9-0.1-1.8-0.3-2.6-0.7s-1.5-0.9-2.1-1.7c-0.3-0.4-0.6-0.8-0.7-1.3c-0.2-0.5-0.4-0.9-0.5-1.5
	c-0.3-1.1-0.4-2.2-0.5-3.3c0-1.1-0.1-2.2,0-3.3c0-1.1,0.1-2.1,0.2-3.1c0.1-1,0.3-2.1,0.5-3.1c0.3-1.2,0.7-2.2,1.3-3.1
	s1.3-1.7,2.4-2.3c0.6-0.4,1.3-0.7,2.1-0.9c0.7-0.2,1.5-0.3,2.2-0.2c1,0,2.1,0,3.1,0.1c1,0,2,0.1,3.1,0.2c0.8,0.1,1.4,0.4,1.9,1.1
	c0.5,0.6,0.6,1.4,0.6,2.2c0,0.4-0.2,0.8-0.4,1.1c-0.2,0.4-0.4,0.6-0.7,0.9c-0.3,0.2-0.6,0.4-0.9,0.5c-0.4,0.1-0.8,0.2-1.1,0.1
	c-1-0.1-1.9-0.2-2.8-0.3c-0.9-0.1-1.9-0.1-2.8,0.1c-1.1,0.1-1.8,0.7-2.1,1.7c-0.1,0.4-0.2,0.9-0.3,1.3c-0.1,0.5-0.2,0.9-0.3,1.5h3
	c0.3,0,0.7,0,1,0s0.6,0,1,0c0.8,0,1.4,0.4,2,0.9c0.6,0.6,0.8,1.3,0.8,2.1s-0.3,1.5-0.8,2c-0.6,0.5-1.2,0.8-2.1,0.8
	c-0.7,0-1.4,0-2.1,0c-0.7,0-1.4,0-2.1,0c-0.1,0-0.2,0-0.3,0C159.8,37.9,159.7,37.9,159.6,37.9z"/>
<path class="st0" d="M191.9,33.1c0.8,0.4,1.4,0.8,2,1.4c0.6,0.5,1,1.1,1.3,1.7c0.3,0.6,0.5,1.3,0.6,1.9c0.1,0.7,0,1.3-0.2,2
	c-0.3,0.8-0.6,1.5-1.1,2.1s-1,1-1.6,1.4s-1.2,0.7-1.9,0.9s-1.4,0.4-2.1,0.4s-1.5,0.2-2.2,0.2c-0.8,0-1.5,0-2.1,0c-0.2,0-0.4,0-0.6,0
	c-0.2,0-0.4,0-0.6,0c0,0.1-0.1,0.2-0.1,0.3s-0.1,0.2-0.1,0.2c-0.3,0.7-0.8,1.1-1.3,1.5c-0.6,0.3-1.2,0.4-1.8,0.2
	c-0.7-0.2-1.3-0.5-1.6-1.1c-0.4-0.5-0.5-1.1-0.5-1.9c0-0.8,0-1.6,0-2.4c0-0.8,0-1.6,0-2.4c0-1.2-0.1-2.3-0.2-3.4
	c0-1.1-0.1-2.3-0.2-3.4c0-0.9,0-1.8,0.1-2.7c0.1-0.9,0.3-1.7,0.6-2.5s0.7-1.5,1.2-2.2s1.1-1.3,1.9-1.8c1.4-0.9,2.9-1.5,4.5-1.8
	s3.2-0.4,4.9-0.3c1.1,0.1,2.1,0.3,2.8,0.7c0.8,0.4,1.4,0.8,1.8,1.4c0.4,0.6,0.7,1.2,0.8,1.9c0.1,0.7,0.1,1.5-0.1,2.2
	c-0.2,0.7-0.5,1.5-0.9,2.2s-1,1.4-1.7,2c-0.3,0.2-0.6,0.5-0.8,0.7C192.5,32.6,192.2,32.8,191.9,33.1z M188.4,29.7
	c0.8-0.5,1.3-1,1.6-1.4c0.2-0.4,0.3-0.7,0.2-0.9c-0.1-0.2-0.4-0.4-0.8-0.5c-0.4-0.1-0.9-0.1-1.3-0.1c-0.5,0-1,0.1-1.6,0.2
	s-1,0.2-1.3,0.4c-0.4,0.2-0.8,0.4-1.1,0.7c-0.3,0.3-0.5,0.6-0.6,1.1c-0.2,0.8-0.3,1.3-0.2,1.7c0.1,0.4,0.2,0.6,0.5,0.7s0.6,0.1,1,0
	s0.8-0.3,1.3-0.5c0.4-0.2,0.9-0.5,1.3-0.7C187.7,30.1,188.1,29.9,188.4,29.7z M183.5,39.1c0.6,0.3,1.3,0.5,2,0.5
	c0.7,0.1,1.3,0.1,1.9,0.1c0.7,0,1.3-0.2,1.7-0.5s0.7-0.7,0.8-1.1c0.1-0.4,0-0.7-0.3-1.1c-0.3-0.4-0.8-0.6-1.5-0.7
	c-0.6-0.1-1.3-0.2-2.1-0.1c-0.8,0-1.7,0.1-2.7,0.1c0,0.5,0.1,1.1,0.1,1.5S183.4,38.6,183.5,39.1z"/>
<path class="st0" d="M208.2,37.9c0,0.5,0,0.9,0.1,1.2c0,0.3,0.1,0.5,0.2,0.7c0.1,0.2,0.3,0.2,0.6,0.3c0.2,0,0.6,0.1,1,0.1
	c1.1,0.1,2.1,0.1,3.2,0c1-0.1,2.1-0.2,3.2-0.4c0.8-0.2,1.6,0,2.2,0.4c0.6,0.4,1,1.1,1.2,1.9c0.2,0.9,0,1.6-0.5,2.3s-1.1,1.1-2.1,1.2
	c-2.8,0.5-5.7,0.6-8.5,0.4c-0.9-0.1-1.8-0.3-2.6-0.7s-1.5-0.9-2.1-1.7c-0.3-0.4-0.6-0.8-0.7-1.3c-0.2-0.5-0.4-0.9-0.5-1.5
	c-0.3-1.1-0.4-2.2-0.5-3.3c0-1.1-0.1-2.2,0-3.3c0-1.1,0.1-2.1,0.2-3.1c0.1-1,0.3-2.1,0.5-3.1c0.3-1.2,0.7-2.2,1.3-3.1
	s1.3-1.7,2.4-2.3c0.6-0.4,1.3-0.7,2.1-0.9c0.7-0.2,1.5-0.3,2.2-0.2c1,0,2.1,0,3.1,0.1c1,0,2,0.1,3.1,0.2c0.8,0.1,1.4,0.4,1.9,1.1
	c0.5,0.6,0.6,1.4,0.6,2.2c0,0.4-0.2,0.8-0.4,1.1c-0.2,0.4-0.4,0.6-0.7,0.9c-0.3,0.2-0.6,0.4-0.9,0.5c-0.4,0.1-0.8,0.2-1.1,0.1
	c-1-0.1-1.9-0.2-2.8-0.3c-0.9-0.1-1.9-0.1-2.8,0.1c-1.1,0.1-1.8,0.7-2.1,1.7c-0.1,0.4-0.2,0.9-0.3,1.3c-0.1,0.5-0.2,0.9-0.3,1.5h3
	c0.3,0,0.7,0,1,0s0.6,0,1,0c0.8,0,1.4,0.4,2,0.9c0.6,0.6,0.8,1.3,0.8,2.1s-0.3,1.5-0.8,2c-0.6,0.5-1.2,0.8-2.1,0.8
	c-0.7,0-1.4,0-2.1,0c-0.7,0-1.4,0-2.1,0c-0.1,0-0.2,0-0.3,0C208.4,37.9,208.3,37.9,208.2,37.9z"/>
<path class="st0" d="M233.2,40.1c0.7,0.1,1.3,0.1,2,0.2c0.6,0,1.3,0,2,0s1.3,0,2.1,0c0.7,0,1.5,0,2.3,0c0.4,0,0.7,0.1,1,0.3
	s0.6,0.4,0.8,0.7s0.4,0.6,0.5,0.9c0.1,0.4,0.1,0.7,0.1,1.1c0,0.4-0.1,0.7-0.3,1s-0.4,0.5-0.6,0.8c-0.2,0.2-0.6,0.4-0.9,0.5
	c-0.3,0.1-0.7,0.2-1,0.2c-0.8,0-1.6,0-2.4,0c-0.8,0-1.6,0-2.4,0c-0.8,0-1.5,0-2.3,0s-1.5,0-2.3-0.2c-0.5,0-1-0.2-1.4-0.4
	s-0.8-0.5-1.2-0.8c-0.3-0.4-0.6-0.7-0.8-1.2c-0.2-0.4-0.3-0.9-0.3-1.4c0-1.5-0.1-3-0.1-4.7c0-1.6,0-3.2,0-4.7c0-0.5,0-1.2,0-1.8
	c0-0.7,0-1.4,0.1-2.1c0-0.7,0-1.4,0.1-2.1c0-0.7,0-1.3,0.1-1.8c0-0.8,0.3-1.5,0.8-1.9c0.5-0.5,1.1-0.7,1.9-0.7c0.8,0,1.5,0.2,2,0.7
	s0.8,1.1,0.8,2c0,0.7,0,1.5-0.1,2.4c0,0.9-0.1,1.8-0.1,2.7c0,0.9-0.1,1.8-0.1,2.7s-0.1,1.7-0.1,2.4c0,0.8,0,1.7,0,2.7
	C233.2,38.3,233.2,39.2,233.2,40.1z"/>
<path class="st0" d="M257.5,40.1c0.7,0.1,1.3,0.1,2,0.2c0.6,0,1.3,0,2,0s1.3,0,2.1,0c0.7,0,1.5,0,2.3,0c0.4,0,0.7,0.1,1,0.3
	s0.6,0.4,0.8,0.7c0.2,0.3,0.4,0.6,0.5,0.9c0.1,0.4,0.1,0.7,0.1,1.1c0,0.4-0.1,0.7-0.3,1c-0.2,0.3-0.4,0.5-0.6,0.8
	c-0.2,0.2-0.6,0.4-0.9,0.5s-0.7,0.2-1,0.2c-0.8,0-1.6,0-2.4,0s-1.6,0-2.4,0s-1.5,0-2.3,0s-1.5,0-2.3-0.2c-0.5,0-1-0.2-1.4-0.4
	s-0.8-0.5-1.2-0.8c-0.3-0.4-0.6-0.7-0.8-1.2c-0.2-0.4-0.3-0.9-0.3-1.4c0-1.5-0.1-3-0.1-4.7c0-1.6,0-3.2,0-4.7c0-0.5,0-1.2,0-1.8
	c0-0.7,0-1.4,0.1-2.1c0-0.7,0-1.4,0.1-2.1c0-0.7,0-1.3,0.1-1.8c0-0.8,0.3-1.5,0.8-1.9c0.5-0.5,1.1-0.7,1.9-0.7s1.5,0.2,2,0.7
	s0.8,1.1,0.8,2c0,0.7,0,1.5-0.1,2.4c0,0.9-0.1,1.8-0.1,2.7c0,0.9-0.1,1.8-0.1,2.7s-0.1,1.7-0.1,2.4c0,0.8,0,1.7,0,2.7
	C257.5,38.3,257.5,39.2,257.5,40.1z"/>
<path class="st0" d="M51.7,56.4c5.5-18.5-17.1-22.7-21.3-22.7s-8.7-4.4-8.9-7.6C21.3,22.9,18,19,18,19c7.2-5,11.7-15.9,10.4-16.6
	c-1.3-0.7-5.7,2.1-9.1,5.6c-4.3,4.5-7.6,10.1-7.6,10.1s-3.8,0.5-6.1,2.7c-2.2,2.2-2.7,4.9-4.2,5.9s-3.5,6.9,4.9,8.1s5.7,3.5,4.9,5.9
	c-0.8,2.5-1.2,7.1,1,10.3s5.8,8.9,4,10.6c-1.7,1.7-4.5,4.4-2.8,5.4s6.4-1.5,10.2-5.1c2.6-2.4,7.9-0.8,7.9-0.8
	C26.4,56.5,31.4,51,31.4,51c-4.7,8.6,8.4,11.3,5.7,12.1c-2.7,0.7-5.2-0.8-9.4-0.8c-4.3,0-6.8,4.9-4.7,4.9h23.6c3.6,0,1.5-4.6,4-4.6
	s6.4,1,6.4-4.2C57.2,53.4,51.7,56.4,51.7,56.4z"/>
<path class="st0" d="M18.3,7C19.1,6.1,20,5.3,21,4.5c1-2.3,1.7-4,1.6-4.2C22-1.6,12.2,4.7,10.2,16.9c0.2,0,0.4-0.1,0.6-0.1
	C11.7,15.2,14.6,10.8,18.3,7z"/>
</svg>
