<svg width="25" height="25" viewBox="0 0 25 25" fill="none" xmlns="http://www.w3.org/2000/svg">
<g clip-path="url(#clip0_5_42647)">
<path d="M12.234 2.25098C15.5028 2.25098 15.8899 2.26562 17.1754 2.32422C18.3702 2.37793 19.0153 2.58301 19.4454 2.75391C20.0141 2.97852 20.4251 3.25195 20.8504 3.68652C21.2805 4.12598 21.5434 4.54102 21.7632 5.12207C21.9305 5.56152 22.1312 6.22559 22.1838 7.44141C22.2411 8.75977 22.2554 9.15527 22.2554 12.4902C22.2554 15.8301 22.2411 16.2256 22.1838 17.5391C22.1312 18.7598 21.9305 19.4189 21.7632 19.8584C21.5434 20.4395 21.2758 20.8594 20.8504 21.2939C20.4203 21.7334 20.0141 22.002 19.4454 22.2266C19.0153 22.3975 18.3654 22.6025 17.1754 22.6563C15.8851 22.7148 15.498 22.7295 12.234 22.7295C8.96526 22.7295 8.57817 22.7148 7.29264 22.6563C6.09791 22.6025 5.45275 22.3975 5.02265 22.2266C4.45396 22.002 4.04297 21.7285 3.61764 21.2939C3.18754 20.8545 2.9247 20.4395 2.70487 19.8584C2.53761 19.4189 2.33689 18.7549 2.28433 17.5391C2.22698 16.2207 2.21264 15.8252 2.21264 12.4902C2.21264 9.15039 2.22698 8.75488 2.28433 7.44141C2.33689 6.2207 2.53761 5.56152 2.70487 5.12207C2.9247 4.54102 3.19232 4.12109 3.61764 3.68652C4.04775 3.24707 4.45396 2.97852 5.02265 2.75391C5.45275 2.58301 6.10268 2.37793 7.29264 2.32422C8.57817 2.26562 8.96526 2.25098 12.234 2.25098ZM12.234 0C8.91269 0 8.49692 0.0146484 7.19228 0.0732422C5.89241 0.131836 4.99875 0.34668 4.22457 0.654297C3.41693 0.976563 2.73354 1.40137 2.05494 2.09961C1.37155 2.79297 0.955785 3.49121 0.640376 4.31152C0.339303 5.10742 0.129031 6.01563 0.0716838 7.34375C0.0143368 8.68164 0 9.10645 0 12.5C0 15.8936 0.0143368 16.3184 0.0716838 17.6514C0.129031 18.9795 0.339303 19.8926 0.640376 20.6836C0.955785 21.5088 1.37155 22.207 2.05494 22.9004C2.73354 23.5938 3.41693 24.0234 4.21979 24.3408C4.99875 24.6484 5.88763 24.8633 7.1875 24.9219C8.49215 24.9805 8.90791 24.9951 12.2293 24.9951C15.5506 24.9951 15.9664 24.9805 17.271 24.9219C18.5709 24.8633 19.4646 24.6484 20.2387 24.3408C21.0416 24.0234 21.725 23.5938 22.4036 22.9004C23.0822 22.207 23.5027 21.5088 23.8134 20.6885C24.1144 19.8926 24.3247 18.9844 24.3821 17.6563C24.4394 16.3232 24.4537 15.8984 24.4537 12.5049C24.4537 9.11133 24.4394 8.68652 24.3821 7.35352C24.3247 6.02539 24.1144 5.11231 23.8134 4.32129C23.5123 3.49121 23.0965 2.79297 22.4131 2.09961C21.7345 1.40625 21.0512 0.976563 20.2483 0.65918C19.4693 0.351563 18.5805 0.136719 17.2806 0.078125C15.9712 0.0146484 15.5554 0 12.234 0Z" fill="#5F6C37"/>
<path d="M12.234 6.0791C8.76455 6.0791 5.94976 8.95508 5.94976 12.5C5.94976 16.0449 8.76455 18.9209 12.234 18.9209C15.7035 18.9209 18.5183 16.0449 18.5183 12.5C18.5183 8.95508 15.7035 6.0791 12.234 6.0791ZM12.234 16.665C9.98317 16.665 8.15762 14.7998 8.15762 12.5C8.15762 10.2002 9.98317 8.33496 12.234 8.33496C14.4849 8.33496 16.3105 10.2002 16.3105 12.5C16.3105 14.7998 14.4849 16.665 12.234 16.665Z" fill="#5F6C37"/>
<path d="M20.234 5.8252C20.234 6.65528 19.5745 7.32422 18.7668 7.32422C17.9544 7.32422 17.2997 6.65039 17.2997 5.8252C17.2997 4.99512 17.9592 4.32617 18.7668 4.32617C19.5745 4.32617 20.234 5 20.234 5.8252Z" fill="#5F6C37"/>
</g>
<defs>
<clipPath id="clip0_5_42647">
<rect width="24.4681" height="25" fill="white"/>
</clipPath>
</defs>
</svg>
