<svg width="27" height="27" viewBox="0 0 27 27" fill="none" xmlns="http://www.w3.org/2000/svg">
<g clip-path="url(#clip0_5_42517)">
<path fill-rule="evenodd" clip-rule="evenodd" d="M13.4583 25.6387C20.1806 25.6387 25.632 20.1873 25.632 13.4651C25.632 6.74289 20.1806 1.2915 13.4583 1.2915C6.73612 1.2915 1.28473 6.74289 1.28473 13.4651C1.28473 18.5534 4.40811 22.9136 8.84181 24.7325C8.85208 24.8121 8.86313 24.892 8.875 24.9723C8.94366 24.925 9.01073 24.8762 9.07625 24.8259C10.436 25.3509 11.9136 25.6387 13.4583 25.6387ZM9.07625 24.8259C10.8862 23.4365 11.5189 20.9263 12.0417 18.3126C12.2889 18.4554 12.5073 18.5999 12.7156 18.7377C13.3382 19.1496 13.8707 19.5019 14.8125 19.5695C19.4514 19.9098 22.0417 15.1598 21.4097 10.7709C20.8403 6.88205 16.7708 4.90288 12.4375 5.36816C9.00694 5.73621 5.59028 8.3751 5.45139 12.1529C5.36111 14.4584 6.32639 16.1876 8.63194 16.6737C8.89583 15.5834 8.94444 14.9932 8.94444 14.9932C8.94444 14.9932 7.93055 14.0209 7.82639 13.4029C6.97916 8.43066 13.8472 5.03483 17.4514 8.50705C19.9375 10.9168 18.2986 18.3265 14.2847 17.5557C12.2799 17.1721 12.8756 15.3873 13.4716 13.6018C14.0192 11.9609 14.5671 10.3194 13.0972 9.76399C10.6042 8.81955 9.27777 12.6459 10.4583 14.5418C10.2755 15.401 10.0373 16.2473 9.79665 17.1025C9.14106 19.4319 8.46683 21.8276 8.84181 24.7325C8.91956 24.7644 8.99771 24.7956 9.07625 24.8259Z" fill="#5F6C37"/>
</g>
<defs>
<clipPath id="clip0_5_42517">
<rect width="25" height="25" fill="white" transform="translate(1 1)"/>
</clipPath>
</defs>
</svg>
