<svg width="25" height="25" viewBox="0 0 25 25" fill="none" xmlns="http://www.w3.org/2000/svg">
<g clip-path="url(#clip0_5_42644)">
<path d="M7.86475 22.6563C17.2964 22.6563 22.4565 14.8403 22.4565 8.06447C22.4565 7.84474 22.4517 7.62013 22.4419 7.40041C23.4457 6.67447 24.312 5.7753 25 4.74513C24.0651 5.16107 23.0725 5.43272 22.0562 5.5508C23.1263 4.90931 23.9276 3.90156 24.3115 2.71437C23.3047 3.31103 22.2037 3.73192 21.0557 3.959C20.2821 3.13707 19.2594 2.59286 18.1455 2.4105C17.0316 2.22814 15.8887 2.41779 14.8935 2.95013C13.8982 3.48247 13.106 4.32785 12.6394 5.35556C12.1728 6.38328 12.0577 7.53609 12.312 8.63576C10.2734 8.53346 8.2791 8.00389 6.45831 7.08138C4.63753 6.15888 3.03093 4.86403 1.74268 3.28078C1.08792 4.40966 0.887559 5.74549 1.18232 7.01679C1.47709 8.28809 2.24486 9.39945 3.32959 10.125C2.51524 10.0992 1.71872 9.87991 1.00586 9.48537V9.54884C1.00513 10.7335 1.41469 11.8819 2.16491 12.7987C2.91513 13.7156 3.95971 14.3444 5.12109 14.5781C4.36672 14.7845 3.57498 14.8146 2.80713 14.666C3.13485 15.6849 3.77247 16.576 4.63101 17.215C5.48955 17.854 6.52617 18.209 7.59619 18.2305C5.77961 19.6574 3.5356 20.4314 1.22559 20.4277C0.815924 20.4271 0.406666 20.402 0 20.3526C2.34673 21.8581 5.07659 22.6577 7.86475 22.6563Z" fill="#5F6C37"/>
</g>
<defs>
<clipPath id="clip0_5_42644">
<rect width="25" height="25" fill="white"/>
</clipPath>
</defs>
</svg>
